<svg xmlns="http://www.w3.org/2000/svg" width="100%" viewBox="0 0 176 32" fill="none"><path fill-rule="evenodd" clip-rule="evenodd" d="M120.454 6.69767V0.119455H126.102L126.092 1.00791C126.056 4.1182 123.56 6.63765 120.454 6.69767Z" fill="#5D5BD4"></path><path d="M151.648 20.5767L156.404 6.69776H161.681L153.952 28.3162C153.023 30.8465 151.313 32 148.452 32H144.922V27.9442H147.412C148.601 27.9442 149.233 27.5721 149.604 26.6047L150.087 25.414H148.527L141.429 6.69776H146.743L151.648 20.5767Z" fill="#121826"></path><path fill-rule="evenodd" clip-rule="evenodd" d="M25.0182 0.11932C27.5304 0.11932 29.5671 2.15601 29.5671 4.66824V6.95658C31.1528 6.02845 32.9986 5.49629 34.9686 5.49627C40.8829 5.49627 45.6774 10.2909 45.6774 16.2051C45.6774 22.1193 40.8829 26.9136 34.9686 26.9136C31.9654 26.9136 29.0763 25.763 26.8952 23.6985L21.417 18.5133V26.9136H16.1103V25.4533C14.5245 26.3815 12.6786 26.9136 10.7085 26.9136C4.79437 26.9135 5.78399e-05 22.1192 0 16.2051C0 10.291 4.79434 5.49632 10.7085 5.49627C13.7117 5.49627 16.6011 6.64687 18.7822 8.71141L24.2601 13.8969V0.11932H25.0182ZM10.7085 10.8033C7.72526 10.8033 5.30702 13.2219 5.30702 16.2051C5.30708 19.1883 7.72529 21.6065 10.7085 21.6066C13.6917 21.6066 16.1102 19.1883 16.1103 16.2051C16.1103 13.2218 13.6917 10.8033 10.7085 10.8033ZM34.9686 10.8033C31.9854 10.8034 29.5671 13.2219 29.5671 16.2051C29.5672 19.1883 31.9854 21.6065 34.9686 21.6066C37.9519 21.6066 40.3703 19.1883 40.3704 16.2051C40.3704 13.2218 37.952 10.8033 34.9686 10.8033Z" fill="#121826"></path><path d="M55.3614 6.21399C60.3033 6.21399 63.6477 8.70692 64.2794 12.8743L58.706 13.0978C58.4088 11.2373 56.8108 10.1209 55.1386 10.1209C53.4295 10.1209 52.0919 11.0139 52.1661 12.4651C52.2403 13.9162 53.9123 14.5487 55.8073 14.8836C61.6038 15.7766 64.4283 17.3024 64.4283 21.0233C64.4282 24.9675 60.7493 26.8649 55.6959 26.8649C49.9364 26.8649 46.258 24.3721 45.9604 20.1675L51.5717 19.9069C51.9061 21.8046 53.3182 22.958 55.5474 22.958C57.0339 22.958 58.7429 22.3627 58.706 20.9116C58.6701 19.306 56.9262 18.9321 55.1119 18.5432C55.0341 18.5266 54.9562 18.5099 54.8787 18.4931C49.4163 17.4513 46.4438 16.0744 46.4438 12.4651C46.4438 8.55818 49.7134 6.21404 55.3614 6.21399Z" fill="#121826"></path><path fill-rule="evenodd" clip-rule="evenodd" d="M75.2114 6.25112C80.6734 6.25112 84.8724 10.0466 84.8351 16.9675V18.0093H70.9382C71.0866 20.9488 72.6846 22.7349 75.2114 22.7349C76.809 22.7349 78.2956 21.7673 78.9272 20.2789L84.5752 20.6513C83.3862 24.4838 79.7074 26.8649 75.2114 26.8649C69.08 26.8649 65.1042 22.772 65.1042 16.558C65.1042 10.3442 69.0801 6.25113 75.2114 6.25112ZM75.2114 10.3815C72.833 10.3815 71.2725 11.9814 70.9753 14.6233H79.1875C78.89 11.6466 77.1807 10.3815 75.2114 10.3815Z" fill="#121826"></path><path d="M97.2307 6.25112C101.504 6.25118 103.993 9.15371 103.993 13.7304V26.4187H98.4196V15.5909C98.4196 12.4281 97.7138 10.679 95.3728 10.6789C93.0317 10.6789 91.7687 12.4281 91.7687 15.5909V26.4187H86.1945V6.69776H91.211L91.3227 9.82314C92.4003 7.2186 94.5925 6.25112 97.2307 6.25112Z" fill="#121826"></path><path d="M109.052 0.11932C111.753 0.11932 113.942 2.31144 113.942 5.01539V6.69776H119.069V10.8278H113.942V19.9815C113.942 21.4326 114.685 22.2511 116.097 22.2511H119.107V26.4187H114.908C110.56 26.4187 108.331 24.2605 108.331 19.9815V10.8278H105.135V6.69776H108.331V0.11932H109.052Z" fill="#121826"></path><path d="M126.028 26.4187H120.454V6.69776H126.028V26.4187Z" fill="#121826"></path><path d="M141.643 4.16753H138.485C137.222 4.16753 136.404 5.06049 136.404 6.54888V7.51641H141.346V11.6836H136.404V26.4187H130.831V11.6836H127.932V7.51641H130.831V6.54888C130.831 2.26981 132.911 0 137.593 0H141.643V4.16753Z" fill="#121826"></path><path fill-rule="evenodd" clip-rule="evenodd" d="M169.736 2.67009C171.186 2.67012 172.109 3.39243 172.109 4.50855C172.109 5.23072 171.713 5.84323 170.988 6.10585L172.284 8.33831H170.768L169.692 6.32502H169.054V8.33831H167.67V2.67009H169.736ZM169.033 5.18698H169.736C170.329 5.18695 170.702 4.96787 170.702 4.53018C170.702 4.0707 170.329 3.87376 169.736 3.87374H169.033V5.18698Z" fill="#121826"></path><path fill-rule="evenodd" clip-rule="evenodd" d="M169.802 0C172.877 0 175.338 2.47299 175.339 5.51502C175.339 8.60086 172.878 11.074 169.802 11.074C166.726 11.074 164.264 8.60086 164.264 5.51502C164.265 2.47299 166.726 0 169.802 0ZM169.802 1.48807C167.604 1.48807 165.759 3.32653 165.759 5.51502C165.759 7.72546 167.604 9.56395 169.802 9.56395C172.021 9.56395 173.844 7.72546 173.844 5.51502C173.844 3.32653 172.021 1.48807 169.802 1.48807Z" fill="#121826"></path></svg>