<svg viewBox="0 0 59 20" xmlns:xlink="http://www.w3.org/1999/xlink" xmlns="http://www.w3.org/2000/svg" xmlns:v="https://vecta.io/nano" width="59" height="20" fill="#231e1f"><path d="M29.964 19.789h4l.842-4h4.442l.758 4h4.905L40.806.421h-6.337l-4.505 19.368zm7.158-15.368h.063l1.389 8H35.48l1.642-8zM52.153 0c4.59 0 6.632 3.157 6.632 7.157h-4.463c0-1.263-.338-3.579-2.064-3.579-2.021.001-2.316 2.948-2.316 6.527 0 4 .19 6.316 2.422 6.316 1.768 0 2.168-1.474 2.273-3.789l4.147.421c0 4.21-2.484 6.948-6.632 6.948-5.811 0-7.389-4.842-7.389-9.895C44.764 5.263 46.322 0 52.153 0z"/><path d="M15.396 19.789h-4.758l-.717-4H5.606l-.821 4H.911L5.269.421h6.169l3.958 19.368zm-9.137-7.368H9.27l-1.368-8H7.86l-1.6 8zm15.621-12c5.895 0 8.653 3.579 8.653 9.263 0 5.474-2.254 10.105-8.064 10.105H16.68V.421h5.2zm-.401 15.789h.527c3.368 0 3.368-4.21 3.368-6.737 0-2.105-.316-5.684-3.494-5.684h-.401V16.21z" fill-rule="evenodd"/></svg>