<svg viewBox="0 0 79 28" xmlns:xlink="http://www.w3.org/1999/xlink" xmlns="http://www.w3.org/2000/svg" xmlns:v="https://vecta.io/nano" width="79" height="28" fill="#000"><path d="M18.867 4.688h5.342v5.341h-5.341V4.688zM.707.416v13.888h13.888V.416H.707zm9.615 9.614H4.979V4.687h5.343v5.342zM28.157 0h7.737c2.84 0 4.138 1.894 4.138 3.624 0 1.247-.479 2.051-1.765 2.8 1.622.6 2.504 1.681 2.504 3.349 0 1.995-1.449 4.112-4.866 4.112h-7.751L28.157 0zm4.226 10.751h2.8c.998 0 1.446-.713 1.446-1.344 0 .292.128-1.151-1.304-1.151h-2.942v2.494zm.01-5.284h2.25c1.029 0 1.438-.479 1.438-1.181 0-.162-.05-1.069-1.143-1.069h-2.545v2.25zM45.496.416h4.474l5.095 13.869h-4.592l-.672-2.078h-4.286l-.57 2.067h-4.557L45.496.416zm2.055 4.118L46.37 9.165h2.525l-1.344-4.632zM62.2 4.54h4.267c0-2.354-1.772-4.54-5.976-4.54-4.612 0-6.04 2.545-6.04 4.408 0 3.004 3.676 3.802 3.79 3.838l3.4.988c.494.176.966.571.966 1.1 0 .809-.966 1.2-1.77 1.2-.516 0-2.251-.171-2.251-2.01h-4.407c0 2.442 1.68 5.176 6.395 5.176 5.202 0 6.291-3.103 6.291-4.753 0-1.347-.763-2.84-2.523-3.552-1.059-.428-2.815-.802-3.697-1.06-.444-.13-1.925-.43-1.925-1.334 0-1.158 1.908-1.008 1.63-1.008.862 0 1.852.485 1.852 1.547zM67.587.412h10.648v3.665h-6.393V6.52h5.701v3.502h-5.721v4.276h-4.256L67.587.412zM6.248 25.29l-1.336-5.02h-.835l-1.352 5.02h-.053l-.004-.018-1.179-5.003H.717l1.535 5.988h.801l1.395-5.071H4.5l.005.017 1.373 5.054h.802l1.602-5.988h-.755L6.301 25.29h-.052zm5.577-2.614a1.91 1.91 0 0 0-.61-.604c-.252-.157-.573-.238-.956-.238a1.98 1.98 0 0 0-.815.167 1.93 1.93 0 0 0-.643.467 2.17 2.17 0 0 0-.422.71c-.103.29-.154.596-.151.904a3.52 3.52 0 0 0 .147.915c.079.264.211.509.389.719a1.76 1.76 0 0 0 .639.467c.252.111.555.168.899.168.489 0 .9-.125 1.221-.368.315-.239.523-.597.621-1.066h-.664c-.064.283-.196.497-.389.638s-.454.216-.762.216c-.24 0-.45-.039-.627-.12a1.24 1.24 0 0 1-.439-.324 1.26 1.26 0 0 1-.25-.464 1.76 1.76 0 0 1-.069-.553v-.023h3.272a3.52 3.52 0 0 0-.072-.809c-.057-.285-.165-.557-.318-.804M8.941 23.7l.002-.025a1.54 1.54 0 0 1 .112-.486 1.32 1.32 0 0 1 .26-.398c.111-.115.244-.207.392-.27a1.27 1.27 0 0 1 .513-.099c.176.003.344.032.504.099a1.28 1.28 0 0 1 .396.267 1.25 1.25 0 0 1 .266.4 1.49 1.49 0 0 1 .114.488l.002.025-2.56-.001zm8.321 2.072c-.229 0-.429-.046-.594-.138a1.17 1.17 0 0 1-.405-.366 1.63 1.63 0 0 1-.228-.519 2.45 2.45 0 0 1-.072-.597c0-.216.023-.432.068-.643a1.64 1.64 0 0 1 .227-.553 1.19 1.19 0 0 1 .426-.387c.178-.097.401-.146.662-.146.309 0 .558.078.742.234.179.151.299.366.359.637h.699a1.7 1.7 0 0 0-.197-.637 1.47 1.47 0 0 0-.405-.462 1.68 1.68 0 0 0-.567-.271c-.226-.06-.458-.089-.691-.088a2.09 2.09 0 0 0-.894.18 1.78 1.78 0 0 0-.638.492 2.12 2.12 0 0 0-.381.735 3.22 3.22 0 0 0-.125.911 2.92 2.92 0 0 0 .13.893 1.95 1.95 0 0 0 .385.697 1.69 1.69 0 0 0 .634.451c.252.105.546.158.874.158.549 0 .989-.145 1.307-.433s.513-.69.594-1.21h-.69c-.048.333-.174.594-.372.779-.204.189-.489.285-.848.285zm4.108-3.705c-.286.196-.516.464-.665.776l-.006.012h-.023v-.921h-.63v4.323h.673v-1.92a3.02 3.02 0 0 1 .085-.756 1.46 1.46 0 0 1 .276-.561 1.13 1.13 0 0 1 .5-.354c.199-.078.441-.117.721-.12v-.714h-.049c-.351 0-.648.079-.879.235m4.596.609a1.9 1.9 0 0 0-.61-.604c-.252-.157-.573-.238-.955-.238a1.98 1.98 0 0 0-.815.167c-.244.11-.463.269-.643.468a2.17 2.17 0 0 0-.423.709 2.61 2.61 0 0 0-.15.906c.004.309.057.617.146.914a2 2 0 0 0 .389.719 1.76 1.76 0 0 0 .638.467c.252.111.555.168.899.168.488 0 .899-.125 1.221-.368.314-.239.523-.597.621-1.066h-.665c-.065.283-.195.497-.389.638s-.454.216-.762.216a1.51 1.51 0 0 1-.627-.12 1.24 1.24 0 0 1-.439-.324 1.26 1.26 0 0 1-.25-.464 1.77 1.77 0 0 1-.07-.554v-.023h3.272c.008-.272-.016-.543-.072-.809a2.42 2.42 0 0 0-.318-.804M23.085 23.7l.002-.025a1.55 1.55 0 0 1 .112-.486c.061-.148.149-.284.259-.4a1.17 1.17 0 0 1 .392-.27 1.27 1.27 0 0 1 .513-.099 1.25 1.25 0 0 1 .503.099 1.27 1.27 0 0 1 .395.267 1.24 1.24 0 0 1 .267.4 1.52 1.52 0 0 1 .116.489l.002.025-2.56-.001zm7.634 1.936a1.7 1.7 0 0 1-.029-.378v-2.247c0-.248-.047-.452-.141-.606a.99.99 0 0 0-.372-.361 1.54 1.54 0 0 0-.52-.171c-.432-.062-.877-.058-1.272.033a1.69 1.69 0 0 0-.575.247 1.27 1.27 0 0 0-.399.444 1.53 1.53 0 0 0-.165.651h.672c.021-.316.135-.536.34-.652s.465-.176.772-.176a2.36 2.36 0 0 1 .346.026.96.96 0 0 1 .321.104c.1.054.179.132.237.227s.092.232.092.393c0 .141-.042.251-.126.325-.096.08-.209.137-.331.165-.155.041-.313.07-.472.086l-.56.087a5.67 5.67 0 0 0-.543.127 1.49 1.49 0 0 0-.465.221 1.09 1.09 0 0 0-.327.378c-.082.153-.124.356-.124.598a1.25 1.25 0 0 0 .112.553 1 1 0 0 0 .306.371 1.24 1.24 0 0 0 .452.208 2.33 2.33 0 0 0 .552.062 2.27 2.27 0 0 0 .841-.154 1.71 1.71 0 0 0 .68-.504l.041-.05v.064c0 .229.054.395.158.494s.249.149.428.149c.208 0 .374-.033.493-.099v-.513c-.064.021-.13.032-.197.034-.125 0-.199-.045-.222-.135m-.702-.875a.84.84 0 0 1-.078.334 1 1 0 0 1-.243.329 1.31 1.31 0 0 1-.421.249c-.171.065-.378.098-.617.098a1.48 1.48 0 0 1-.322-.034c-.099-.019-.194-.058-.278-.113a.63.63 0 0 1-.193-.206c-.052-.095-.078-.203-.075-.312 0-.184.043-.333.128-.44a.81.81 0 0 1 .326-.248 1.81 1.81 0 0 1 .445-.125l.486-.068.459-.076c.124-.023.242-.072.346-.144l.037-.029.001.783zm7.746-2.086a1.9 1.9 0 0 0-.61-.604c-.252-.157-.574-.238-.956-.238a1.98 1.98 0 0 0-.815.167c-.245.11-.464.269-.643.468a2.16 2.16 0 0 0-.422.709 2.63 2.63 0 0 0-.15.904 3.51 3.51 0 0 0 .146.915 1.99 1.99 0 0 0 .388.72c.175.202.393.361.638.467.253.111.555.168.899.168.488 0 .899-.125 1.22-.368.314-.239.523-.597.621-1.066h-.663c-.065.283-.196.497-.39.638s-.453.216-.762.216c-.239 0-.45-.039-.627-.12a1.25 1.25 0 0 1-.439-.324 1.26 1.26 0 0 1-.25-.464 1.76 1.76 0 0 1-.068-.552v-.023h3.271c.008-.272-.017-.543-.072-.809a2.44 2.44 0 0 0-.317-.805zm-2.869 1.026l.002-.025a1.51 1.51 0 0 1 .112-.486c.06-.148.148-.284.258-.4a1.19 1.19 0 0 1 .392-.27 1.27 1.27 0 0 1 .513-.099c.249-.003.493.068.701.204s.37.332.466.562a1.51 1.51 0 0 1 .116.489l.002.025h-2.561zm8.315 2.07c-.228 0-.428-.046-.594-.138a1.17 1.17 0 0 1-.405-.366 1.63 1.63 0 0 1-.228-.519 2.5 2.5 0 0 1-.072-.597 2.99 2.99 0 0 1 .068-.643c.041-.197.118-.384.227-.553a1.2 1.2 0 0 1 .427-.388 1.37 1.37 0 0 1 .662-.146c.308 0 .558.078.742.234s.3.366.359.637h.699a1.69 1.69 0 0 0-.197-.638 1.47 1.47 0 0 0-.405-.461 1.7 1.7 0 0 0-.567-.271 2.64 2.64 0 0 0-.692-.088c-.338 0-.64.06-.894.18a1.77 1.77 0 0 0-.638.492c-.174.217-.304.467-.381.735-.085.296-.127.603-.126.911a2.94 2.94 0 0 0 .13.893c.079.256.21.493.383.697a1.71 1.71 0 0 0 .634.451c.253.105.547.158.874.158.551 0 .99-.145 1.309-.433.312-.282.513-.689.594-1.21h-.688c-.048.333-.172.594-.373.779s-.488.285-.848.285m6.058-3.499c-.123-.144-.28-.255-.456-.324-.189-.077-.427-.117-.71-.117a2.01 2.01 0 0 0-.398.042 1.73 1.73 0 0 0-.391.129 1.33 1.33 0 0 0-.336.224c-.1.091-.2.202-.255.334l-.005.014h-.032V20.27h-.672v5.988h.672v-2.444a1.8 1.8 0 0 1 .081-.553c.051-.163.135-.313.245-.443a1.11 1.11 0 0 1 .41-.294c.163-.068.358-.103.58-.103.281 0 .506.081.667.243s.243.382.243.659v2.935h.675v-2.85c.002-.216-.022-.431-.071-.642-.042-.181-.127-.35-.246-.493zm4.826.402a1.9 1.9 0 0 0-.61-.606c-.252-.157-.573-.238-.956-.238a1.98 1.98 0 0 0-.815.167 1.94 1.94 0 0 0-.643.468 2.18 2.18 0 0 0-.422.71 2.6 2.6 0 0 0-.15.904 3.5 3.5 0 0 0 .146.915 2 2 0 0 0 .39.719c.175.202.393.362.638.467a2.23 2.23 0 0 0 .899.168c.488 0 .898-.125 1.22-.368.314-.239.523-.597.621-1.066h-.663c-.064.283-.196.497-.39.638s-.454.216-.761.216c-.239 0-.45-.039-.627-.12-.169-.074-.318-.185-.439-.324a1.25 1.25 0 0 1-.249-.464 1.73 1.73 0 0 1-.069-.552v-.023h3.271c.008-.272-.017-.543-.073-.809a2.42 2.42 0 0 0-.318-.803zm-2.884 1.025l.002-.025a1.52 1.52 0 0 1 .112-.486c.06-.148.148-.284.258-.4a1.2 1.2 0 0 1 .392-.27 1.27 1.27 0 0 1 .513-.099 1.25 1.25 0 0 1 .899.366 1.27 1.27 0 0 1 .268.4 1.53 1.53 0 0 1 .115.489l.002.025h-2.561zm9.827-1.577a1.21 1.21 0 0 0-.448-.22 2.28 2.28 0 0 0-.59-.071 1.62 1.62 0 0 0-.779.192 1.52 1.52 0 0 0-.57.54l-.027.042-.016-.047c-.087-.263-.24-.452-.453-.562a1.58 1.58 0 0 0-.725-.166c-.603 0-1.097.247-1.417.734l-.007.011h-.027v-.641h-.63v4.323h.672V23.56a1.07 1.07 0 0 1 .064-.324c.047-.136.117-.262.206-.375a1.24 1.24 0 0 1 .371-.311c.151-.086.336-.13.548-.13.166 0 .304.025.411.074a.63.63 0 0 1 .259.211.85.85 0 0 1 .135.316 1.88 1.88 0 0 1 .038.394v2.842h.673V23.56c0-.342.104-.621.31-.827s.494-.311.853-.311c.176 0 .324.027.436.078.107.047.199.121.268.216a.76.76 0 0 1 .13.318 2.02 2.02 0 0 1 .035.385v2.84h.672v-3.18c0-.221-.035-.412-.104-.57a1 1 0 0 0-.288-.384zm2.242-1.021h-.672v-.833h.672v.833zm0 .832h-.672v4.323h.672v-4.323zm4.02 4.132a1.28 1.28 0 0 0 .423-.415c.108-.17.162-.387.162-.648a1.03 1.03 0 0 0-.119-.513 1.08 1.08 0 0 0-.315-.342c-.138-.096-.29-.171-.45-.222-.173-.057-.348-.105-.526-.143l-.507-.114a3.04 3.04 0 0 1-.46-.135c-.126-.047-.241-.118-.341-.207a.43.43 0 0 1-.138-.326c-.004-.104.027-.206.089-.289a.62.62 0 0 1 .228-.175 1.1 1.1 0 0 1 .307-.092c.227-.039.46-.034.685.013a1.11 1.11 0 0 1 .324.124.74.74 0 0 1 .243.231.76.76 0 0 1 .112.341h.672c-.019-.251-.074-.462-.165-.63a1.12 1.12 0 0 0-.378-.413c-.166-.106-.352-.179-.546-.216a3.45 3.45 0 0 0-.68-.063 2.4 2.4 0 0 0-.573.071 1.75 1.75 0 0 0-.518.217 1.22 1.22 0 0 0-.374.378c-.095.153-.144.34-.144.554 0 .275.069.491.206.643a1.39 1.39 0 0 0 .52.363 3.54 3.54 0 0 0 .684.202l.69.162c.19.049.371.128.535.235.147.1.222.249.222.442 0 .14-.036.257-.108.348a.66.66 0 0 1-.266.206 1.34 1.34 0 0 1-.348.095 2.34 2.34 0 0 1-.789-.017 1.2 1.2 0 0 1-.378-.143.8.8 0 0 1-.275-.27.83.83 0 0 1-.112-.391h-.67c.013.256.069.475.165.655a1.26 1.26 0 0 0 .399.449 1.69 1.69 0 0 0 .575.245 3.29 3.29 0 0 0 1.347.013c.209-.037.411-.112.594-.221m2.404-5.444h-.673v1.31h-.717v.588h.717v2.804a1.63 1.63 0 0 0 .059.483.57.57 0 0 0 .175.276.67.67 0 0 0 .311.135 2.5 2.5 0 0 0 .473.038h.527v-.588h-.307c-.093.001-.185-.003-.278-.012a.38.38 0 0 1-.175-.06c-.044-.031-.076-.078-.089-.13a.78.78 0 0 1-.022-.209v-2.737h.897v-.588h-.897v-1.31zm-36.906 0h-.675v1.31h-.717v.588h.717v2.804a1.63 1.63 0 0 0 .059.483.57.57 0 0 0 .175.276.67.67 0 0 0 .31.135 2.5 2.5 0 0 0 .473.038h.527v-.588h-.307a2.65 2.65 0 0 1-.277-.012.38.38 0 0 1-.176-.06c-.044-.032-.075-.078-.089-.13a.78.78 0 0 1-.022-.209v-2.737h.896v-.588H32.8l.001-1.31zm39.471 2.271l-.006.012h-.024v-.973h-.63v4.323h.672v-1.869c-.003-.254.026-.507.086-.753a1.46 1.46 0 0 1 .275-.562c.133-.159.305-.282.499-.354s.442-.117.721-.12v-.715c-.372-.007-.685.072-.927.234-.286.197-.515.464-.665.777zm3.816 4.491c.094-.174.177-.355.247-.54l1.89-4.913h-.71l-1.227 3.575h-.049l-.006-.016-1.271-3.56h-.76l1.723 4.322-.003.008-.297.735a.87.87 0 0 1-.243.305.6.6 0 0 1-.37.107.73.73 0 0 1-.223-.035l-.176-.058v.611a1.14 1.14 0 0 0 .225.054 1.91 1.91 0 0 0 .25.016c.141.003.281-.018.414-.062.119-.043.227-.111.318-.198a1.47 1.47 0 0 0 .266-.353z"/></svg>