<svg xmlns="http://www.w3.org/2000/svg" width="80" height="80" fill="none" xmlns:v="https://vecta.io/nano"><rect width="80" height="80" rx="40" fill="#5d5bd4"/><g fill="#fc0"><use href="#B"/><use href="#C"/><use href="#D"/><use href="#E"/><use href="#F"/><use href="#G"/><use href="#H"/><use href="#I"/><use href="#J"/><use href="#K"/><use href="#B" y="61.796"/><use href="#C" y="61.796"/><use href="#D" y="61.795"/><use href="#E" y="61.795"/><use href="#L"/><use href="#G" y="61.796"/><use href="#H" y="61.795"/><path d="M35.147 69.798l3.952 2.89a.23.23 0 0 0 .324-.051l1.15-1.593a.23.23 0 0 0-.149-.363l-5.277-.882z"/><use href="#M"/><use href="#K" y="61.796"/><path d="M9.311 35.342L7.8 40.021a.23.23 0 0 0 .148.29l1.859.608a.23.23 0 0 0 .3-.254l-.797-5.323z"/><use href="#N"/><path d="M14.178 38.9H9.291a.23.23 0 0 0-.231.231v1.969a.23.23 0 0 0 .335.206l4.782-2.406z"/><path d="M14.178 38.9l-3.952 2.89a.23.23 0 0 1-.324-.051l-1.15-1.593a.23.23 0 0 1 .149-.363l5.277-.883z"/><path d="M12.319 44.658l-1.51-4.677a.23.23 0 0 0-.292-.148l-1.86.608a.23.23 0 0 0-.093.381l3.755 3.837z"/><path d="M12.319 44.658l-3.955-2.892a.23.23 0 0 1-.051-.322l1.149-1.592c.101-.14.313-.124.392.029l2.464 4.776z"/><path d="M4.444 38.9h4.886a.23.23 0 0 1 .231.231v1.969a.23.23 0 0 1-.335.206L4.444 38.9z"/><path d="M4.444 38.9l3.952 2.89a.23.23 0 0 0 .323-.051l1.15-1.593a.23.23 0 0 0-.149-.363L4.444 38.9z"/><use href="#M" x="-30.703" y="-30.898"/><path d="M6.303 44.658l3.954-2.892a.23.23 0 0 0 .051-.322l-1.15-1.592a.23.23 0 0 0-.392.029l-2.464 4.776zM21.654 17.9l3.954-2.891a.23.23 0 0 0 .051-.322l-1.149-1.592a.23.23 0 0 0-.392.029L21.654 17.9z"/><path d="M21.654 17.9l1.51-4.677a.23.23 0 0 1 .291-.149l1.86.608a.23.23 0 0 1 .093.381L21.654 17.9z"/><use href="#O"/><use href="#P"/><use href="#B" x="-15.351" y="4.14"/><use href="#Q"/><path d="M27.67 17.9l-3.954-2.891a.23.23 0 0 1-.051-.322l1.149-1.592a.23.23 0 0 1 .392.029L27.67 17.9z"/><path d="M27.67 17.9l-1.51-4.677a.23.23 0 0 0-.291-.149l-1.86.608a.23.23 0 0 0-.093.381L27.67 17.9z"/><use href="#R"/><use href="#S"/><use href="#F" x="-26.589" y="15.449"/><path d="M16.432 29.209l-3.954-2.891a.23.23 0 0 1-.051-.322l1.149-1.592a.23.23 0 0 1 .392.029l2.464 4.776z"/><path d="M10.417 29.209l3.955-2.891a.23.23 0 0 0 .051-.322l-1.149-1.592a.23.23 0 0 0-.392.029l-2.464 4.776z"/><use href="#J" x="-26.589" y="15.449"/><use href="#T"/><use href="#H" x="-26.589" y="15.449"/><use href="#U"/><use href="#S" x="-11.238" y="11.31"/><path d="M13.424 19.893l1.51 4.679a.23.23 0 0 1-.148.29l-1.859.608c-.163.053-.326-.084-.3-.254l.797-5.323z"/><use href="#V"/><use href="#W"/><use href="#R" x="-11.238" y="42.207"/><use href="#L" x="-26.589" y="-15.449"/><path d="M16.432 60.107l-3.954-2.892a.23.23 0 0 1-.051-.322l1.149-1.592c.101-.14.313-.124.392.029l2.464 4.776z"/><path d="M10.417 60.107l3.955-2.892a.23.23 0 0 0 .051-.322l-1.149-1.592c-.101-.14-.313-.124-.392.029l-2.464 4.776z"/><use href="#M" x="-26.589" y="-15.449"/><use href="#X"/><use href="#B" x="-26.589" y="46.347"/><use href="#P" x="-11.238" y="42.207"/><use href="#O" x="-11.238" y="42.207"/><use href="#S" y="53.517"/><use href="#E" x="-15.351" y="57.656"/><path d="M27.67 71.416l-1.51-4.677a.23.23 0 0 0-.291-.148l-1.86.608a.23.23 0 0 0-.093.381l3.755 3.836z"/><use href="#Y"/><path d="M21.654 71.416l3.954-2.891a.23.23 0 0 0 .051-.322l-1.149-1.592c-.101-.14-.313-.124-.392.029l-2.463 4.776z"/><use href="#Z"/><use href="#N" x="15.351" y="26.758"/><use href="#a"/><use href="#P" y="53.517"/><path d="M19.796 65.659l3.952 2.89a.23.23 0 0 0 .323-.051l1.15-1.593a.23.23 0 0 0-.149-.363l-5.277-.882z"/><use href="#X" x="57.265" y="-15.335"/><use href="#B" x="30.676" y="31.012"/><use href="#H" x="30.675" y="31.012"/><use href="#T" x="57.264" y="15.563"/><path d="M67.681 44.772l1.51-4.677a.23.23 0 0 1 .291-.148l1.86.608c.163.053.213.259.093.381l-3.755 3.837z"/><path d="M67.681 44.772l3.955-2.892a.23.23 0 0 0 .051-.322l-1.15-1.592c-.101-.14-.313-.124-.392.029l-2.464 4.776z"/><use href="#W" x="57.265" y="-15.334"/><use href="#U" x="57.265" y="15.563"/><use href="#b"/><path d="M73.697 44.772l-3.955-2.891a.23.23 0 0 1-.051-.322l1.149-1.592c.101-.14.314-.124.392.029l2.464 4.776z"/><use href="#J" x="15.271" y="4.291"/><path d="M52.277 18.051l3.954-2.891a.23.23 0 0 0 .051-.322l-1.15-1.592c-.101-.14-.313-.124-.392.029l-2.463 4.776z"/><use href="#G" x="15.271" y="4.291"/><path d="M58.292 18.051l-1.51-4.677a.23.23 0 0 0-.292-.149l-1.86.608c-.163.053-.213.259-.093.381l3.755 3.836z"/><use href="#U" x="41.86" y="-11.158"/><use href="#S" x="30.622" y="0.152"/><use href="#T" x="41.86" y="-11.158"/><use href="#H" x="15.271" y="4.291"/><use href="#V" x="41.861" y="-11.157"/><use href="#C" x="15.272" y="4.292"/><use href="#H" x="26.562" y="46.46"/><use href="#I" x="26.562" y="46.46"/><path d="M63.568 60.221l1.51-4.677a.23.23 0 0 1 .291-.148l1.86.608c.163.053.213.259.093.381l-3.755 3.836z"/><path d="M63.568 60.221l3.955-2.891a.23.23 0 0 0 .051-.322l-1.149-1.592c-.101-.14-.314-.124-.392.029l-2.464 4.776z"/><path d="M69.583 60.221l-3.955-2.891a.23.23 0 0 1-.051-.322l1.15-1.592c.101-.14.313-.124.392.029l2.464 4.776z"/><use href="#b" x="-4.114" y="15.449"/><use href="#V" x="53.152" y="31.012"/><use href="#N" x="57.265" y="15.563"/><use href="#S" x="41.913" y="42.321"/><use href="#U" x="53.151" y="31.011"/><use href="#H" x="15.324" y="57.77"/><use href="#T" x="41.913" y="42.321"/><path d="M52.33 71.53l1.51-4.677a.23.23 0 0 1 .291-.148l1.86.608c.163.053.213.259.093.381L52.33 71.53z"/><path d="M52.33 71.53l3.955-2.891a.23.23 0 0 0 .051-.322l-1.15-1.592a.23.23 0 0 0-.392.029L52.33 71.53z"/><path d="M58.345 71.53l-3.954-2.891a.23.23 0 0 1-.051-.322l1.149-1.592c.101-.14.313-.124.392.029l2.463 4.776z"/><use href="#b" x="-15.352" y="26.758"/><use href="#B" x="15.325" y="57.77"/><use href="#Q" x="30.676" y="53.63"/><use href="#D" x="15.324" y="57.77"/><use href="#E" x="15.324" y="57.77"/><use href="#C" x="26.7" y="15.449"/><use href="#a" x="42.051" y="-42.207"/><use href="#P" x="42.05" y="11.31"/><use href="#O" x="42.05" y="11.31"/><use href="#Z" x="42.051" y="-42.207"/><use href="#K" x="26.699" y="15.449"/><use href="#W" x="53.288" y="-30.897"/><path d="M71.579 23.452l-3.952 2.89a.23.23 0 0 1-.324-.051l-1.15-1.593c-.1-.139-.02-.335.149-.363l5.277-.883z"/><use href="#L" x="26.699" y="-46.347"/><use href="#Y" x="42.05" y="-42.207"/></g><path d="M23.033 44v-7.467h2.389c.761 0 1.433.16 2.016.48a3.47 3.47 0 0 1 1.376 1.323c.334.555.501 1.198.501 1.931 0 .725-.167 1.369-.501 1.931a3.47 3.47 0 0 1-1.376 1.323c-.583.32-1.255.48-2.016.48h-2.389zm1.461-1.365h.928c.341 0 .658-.061.949-.181a2.31 2.31 0 0 0 .757-.501c.221-.213.391-.462.512-.747.121-.291.181-.604.181-.939s-.06-.644-.181-.928a2.23 2.23 0 0 0-.512-.757 2.31 2.31 0 0 0-.757-.501c-.292-.121-.608-.181-.949-.181h-.928v4.736zm8.514 1.493c-.377 0-.729-.046-1.056-.139s-.619-.22-.875-.384c-.256-.171-.469-.359-.64-.565a1.59 1.59 0 0 1-.32-.651l1.429-.427c.092.242.256.452.491.629.235.171.53.26.885.267.377.007.683-.075.917-.245.242-.171.363-.391.363-.661 0-.235-.096-.43-.288-.587-.185-.163-.441-.288-.768-.373l-.971-.256a3.09 3.09 0 0 1-.96-.416c-.277-.192-.494-.427-.651-.704s-.235-.601-.235-.971c0-.704.231-1.251.693-1.643.469-.398 1.131-.597 1.984-.597.476 0 .892.071 1.248.213.363.135.665.331.907.587a2.62 2.62 0 0 1 .555.907l-1.419.437c-.085-.242-.242-.448-.469-.619s-.516-.256-.864-.256c-.356 0-.637.082-.843.245-.199.164-.299.395-.299.693 0 .235.078.42.235.555.164.135.384.238.661.309l.981.245c.64.156 1.138.437 1.493.843s.533.857.533 1.355c0 .441-.107.828-.32 1.163-.213.327-.523.583-.928.768s-.896.277-1.472.277zm7.439 0c-.761 0-1.436-.164-2.027-.491-.583-.334-1.042-.789-1.376-1.365-.334-.583-.501-1.252-.501-2.005s.167-1.419.501-1.995c.334-.583.793-1.038 1.376-1.365.59-.334 1.266-.501 2.027-.501a3.77 3.77 0 0 1 1.259.203c.384.135.722.324 1.013.565.299.235.548.505.747.811l-1.195.747a1.92 1.92 0 0 0-.48-.512 2.33 2.33 0 0 0-.64-.352c-.235-.085-.469-.128-.704-.128-.469 0-.885.11-1.248.331a2.27 2.27 0 0 0-.853.885c-.206.377-.309.814-.309 1.312 0 .491.099.928.299 1.312.206.384.494.686.864.907.37.213.797.32 1.28.32.377 0 .711-.075 1.003-.224.299-.149.533-.359.704-.629a1.72 1.72 0 0 0 .256-.939l1.387-.213c0 .704-.146 1.305-.437 1.803-.284.498-.683.878-1.195 1.141-.505.256-1.088.384-1.749.384zm.245-2.987V40h3.136v.907l-.789.235h-2.347zM47.319 44l2.827-7.467h1.568L48.748 44h-1.429zm-.16 0l-2.976-7.467h1.568L48.588 44h-1.429zm8.736.128c-.754 0-1.422-.164-2.005-.491a3.62 3.62 0 0 1-1.355-1.365c-.327-.583-.491-1.248-.491-1.995 0-.761.164-1.429.491-2.005.327-.583.775-1.038 1.344-1.365.576-.327 1.237-.491 1.984-.491.754 0 1.415.167 1.984.501a3.52 3.52 0 0 1 1.355 1.365c.327.576.491 1.241.491 1.995 0 .747-.163 1.412-.491 1.995a3.54 3.54 0 0 1-1.344 1.365c-.569.327-1.223.491-1.963.491zm0-1.333c.455 0 .853-.107 1.195-.32.348-.221.619-.519.811-.896.199-.377.299-.811.299-1.301 0-.498-.1-.935-.299-1.312s-.473-.672-.821-.885c-.349-.22-.754-.331-1.216-.331a2.24 2.24 0 0 0-1.205.331c-.348.213-.622.508-.821.885s-.299.814-.299 1.312c0 .491.099.925.299 1.301s.477.675.832.896c.356.213.764.32 1.227.32z" fill="#fff"/><defs ><path id="B" d="M40.013 4.444l-1.511 4.679a.23.23 0 0 0 .148.29l1.859.608a.23.23 0 0 0 .3-.254l-.797-5.323z"/><path id="C" d="M40.013 4.444l1.511 4.679a.23.23 0 0 1-.148.29l-1.859.608c-.163.053-.325-.084-.3-.254l.797-5.323z"/><path id="D" d="M44.88 8.003h-4.886a.23.23 0 0 0-.231.231v1.969a.23.23 0 0 0 .335.206l4.782-2.406z"/><path id="E" d="M44.88 8.003l-3.952 2.89a.23.23 0 0 1-.323-.051l-1.15-1.593a.23.23 0 0 1 .149-.363l5.277-.882z"/><path id="F" d="M43.021 13.76l-1.51-4.677a.23.23 0 0 0-.291-.149l-1.86.608c-.163.053-.213.259-.093.381l3.755 3.836z"/><path id="G" d="M43.021 13.76l-3.955-2.891a.23.23 0 0 1-.051-.322l1.149-1.592c.101-.14.313-.124.392.029l2.464 4.776z"/><path id="H" d="M35.147 8.003h4.886a.23.23 0 0 1 .231.231v1.969c0 .172-.181.284-.335.206l-4.782-2.406z"/><path id="I" d="M35.147 8.003l3.952 2.89a.23.23 0 0 0 .324-.051l1.15-1.593c.1-.139.02-.335-.149-.363l-5.277-.882z"/><path id="J" d="M37.006 13.76l1.51-4.677a.23.23 0 0 1 .291-.149l1.86.608c.163.053.213.259.093.381l-3.755 3.836z"/><path id="K" d="M37.006 13.76l3.955-2.891a.23.23 0 0 0 .051-.322l-1.15-1.592c-.101-.14-.313-.124-.392.029l-2.464 4.776z"/><path id="L" d="M43.021 75.556l-1.51-4.677a.23.23 0 0 0-.291-.148l-1.86.608a.23.23 0 0 0-.093.381l3.755 3.837z"/><path id="M" d="M37.006 75.556l1.51-4.677a.23.23 0 0 1 .291-.148l1.86.608a.23.23 0 0 1 .093.381l-3.755 3.837z"/><path id="N" d="M9.311 35.342l1.511 4.679a.23.23 0 0 1-.148.29l-1.859.608c-.163.053-.326-.084-.3-.254l.797-5.323z"/><path id="O" d="M19.796 12.142l3.952 2.89a.23.23 0 0 0 .323-.051l1.15-1.593a.23.23 0 0 0-.149-.363l-5.277-.883z"/><path id="P" d="M19.796 12.142h4.886a.23.23 0 0 1 .231.231v1.969a.23.23 0 0 1-.335.206l-4.782-2.406z"/><path id="Q" d="M24.662 8.584l1.511 4.679a.23.23 0 0 1-.148.29l-1.859.608a.23.23 0 0 1-.3-.254l.797-5.323z"/><path id="R" d="M29.529 12.142l-3.952 2.89a.23.23 0 0 1-.323-.051l-1.15-1.593a.23.23 0 0 1 .149-.363l5.277-.883z"/><path id="S" d="M29.529 12.142h-4.886a.23.23 0 0 0-.231.231v1.969c0 .172.181.284.335.206l4.782-2.406z"/><path id="T" d="M8.558 23.452l3.952 2.89a.23.23 0 0 0 .323-.051l1.15-1.593c.1-.139.02-.335-.149-.363l-5.277-.882z"/><path id="U" d="M18.291 23.452l-3.952 2.89a.23.23 0 0 1-.323-.051l-1.15-1.593c-.1-.139-.02-.335.149-.363l5.277-.882z"/><path id="V" d="M13.424 19.893l-1.511 4.679a.23.23 0 0 0 .148.29l1.859.608c.163.053.325-.084.3-.254l-.797-5.323z"/><path id="W" d="M18.291 54.349h-4.886a.23.23 0 0 0-.231.231v1.969c0 .172.181.283.335.206l4.782-2.406z"/><path id="X" d="M13.424 50.791l1.51 4.679a.23.23 0 0 1-.148.29l-1.859.608a.23.23 0 0 1-.3-.254l.797-5.323z"/><path id="Y" d="M27.67 71.416l-3.954-2.891a.23.23 0 0 1-.051-.322l1.149-1.592c.101-.14.314-.124.392.029l2.464 4.776z"/><path id="Z" d="M21.654 71.416l1.51-4.677a.23.23 0 0 1 .291-.148l1.86.608a.23.23 0 0 1 .093.381l-3.755 3.836z"/><path id="a" d="M24.662 62.1l-1.511 4.679a.23.23 0 0 0 .148.29l1.859.608c.163.053.326-.084.3-.254l-.797-5.323z"/><path id="b" d="M73.697 44.772l-1.51-4.677a.23.23 0 0 0-.291-.148l-1.86.608c-.163.053-.213.259-.093.381l3.755 3.836z"/></defs></svg>