<svg xmlns="http://www.w3.org/2000/svg" width="110" height="32" fill="none" xmlns:v="https://vecta.io/nano"><path fill-rule="evenodd" d="M74.871 11.868c0 3.563-2.22 8.245-3.825 11.338-2.52 4.867-5.93 7.784-11.475 8.128-4.901.304-15.977 1.155-14.036-7.103.841-3.575 2.711-6.725 3.859-10.177 3.857-7.696 13.564-9.163 21.276-7.24 2.61.95 4 2.221 4.201 5.054zm-12.943.341c-3.964 0-4.447 5.533-5.191 8.504-.187 1.123-1.444 4.884.581 4.884 4.766.958 5.209-4.269 6.011-7.752.295-1.282.879-3.432.615-4.747 0-.978-1.364-.822-2.015-.888zm-27.286.239c-.489 9.371-7.071 8.642-14.89 8.606-2.971-.012-6.01-.205-8.948-.205-1.084 1.099 2.054 4.434 2.937 4.986 3.014 1.877 6.795 1.071 9.221-1.366 1.303 0 15.293-1.828 10.45 3.005-2.344 2.085-5.66 3.317-8.674 4.03-9.593 2.268-30.314-3.246-23.325-16.768C6.19 6.874 16.538 2.574 25.079.359A19.44 19.44 0 0 1 27.47.018c6.077-.454 7.172 7.933 7.172 12.431zm-8.913-.751c0-.848.035-1.744-.239-2.561-.938-3.779-10.779 4.291-11.953 5.464-.147.297-.036.205.171.307l9.801-.034c2.148-.354 2.22-1.008 2.22-3.176zm18.954 4.815c-.74 1.491-.575 3.448-2.083 4.576-2.063 1.543-7.258 1.547-6.113-2.186 1.084-3.549 3.134-5.058 6.864-4.132.91.305 1.125.908 1.332 1.742zm64.955-4.61c0 .955-.201 1.94-.41 2.869-1.233 5.449-3.221 10.633-4.986 15.88-1.62 1.62-4.987.738-6.728-.307-.871-.871 1.294-5.313 1.639-6.386.53-1.649 3.428-7.729.991-8.947-.784 0-1.408.103-2.186.307-7.295 2.554-12.473 9.98-17.724 15.231-2.276 1.146-3.911.853-6.147-.273-.222-.222-.114-.574-.068-.854 1.692-7.068 4.369-14.076 7.274-20.73.457-1.359 5.154-.855 6.318-.273 0 1.505-.158 4.03 2.015 4.03 4.875-.537 16.819-11.118 19.842-2.049.086.512.171.976.171 1.503z" fill="#f21c0a"/></svg>