<svg xmlns="http://www.w3.org/2000/svg" width="133" height="32" fill="none" xmlns:v="https://vecta.io/nano"><style><![CDATA[.B{fill-rule:evenodd}]]></style><g fill="#1e2b80"><path d="M42.382 18.332c4.179 0 5.425 2.973 5.425 6.829S46.561 32 42.382 32c-4.2 0-5.425-2.983-5.425-6.839s1.225-6.829 5.425-6.829zm0 2.176c-1.911 0-2.409 2.148-2.409 4.653s.498 4.653 2.409 4.653c1.895 0 2.409-2.148 2.409-4.653s-.514-4.653-2.409-4.653z" class="B"/><path d="M17.224 20.617h-1.271v6.794c.008.313.025.621.104.927.093.36.267.701.565.932.345.267.818.366 1.247.354.507-.014.981-.12 1.362-.468.449-.411.523-1.179.537-1.745v-6.793h-1.101v-2.288h5.126v2.288h-1.226v6.801c0 3.814-3.026 4.383-4.693 4.383-1.543 0-4.719-.554-4.719-4.383v-6.801h-1.438v-2.288h5.508v2.288z"/><path d="M30.463 18.329c2.848 0 4.347 1.234 4.384 3.638.022 1.47-.653 2.448-1.844 2.965.183.104.32.169.56.386.594.536.802 1.441.935 1.938.227.844.267 2.13 1.68 2.085v2.27h-.657c-1.988 0-3.143-1.481-3.654-3.342-.115-.42-.221-.953-.454-1.38-.37-.596-.989-.663-1.624-.686l-.673-.002v3.11h.966v2.295h-5.221v-2.295h1.447v-8.695h-1.447v-2.288h5.601zm-1.351 5.693c1.524.002 2.898.007 2.898-1.811 0-.504-.093-1.692-1.554-1.692h-1.344v3.503zm79.671-5.693c2.849 0 4.348 1.235 4.385 3.638.021 1.47-.654 2.448-1.844 2.965.183.104.319.169.559.386.594.536.803 1.441.936 1.938.227.844.182 2.096 1.807 2.055v2.295l-.783.004c-1.989 0-3.143-1.481-3.654-3.342-.115-.42-.222-.953-.456-1.38-.369-.596-.987-.663-1.621-.686l-.674-.002v3.11h.965v2.295H97.961V29.31h1.136l-.527-1.707h-3.718l-.528 1.707h1.142v2.294h-5.153V29.31h1.127l3.756-10.98h3.049l3.739 10.98h2.645v-8.695h-1.448v-2.288h5.601zm-13.209 6.988h2.274l-1.137-3.91-1.137 3.91zm11.857-1.295c1.524.002 2.898.007 2.898-1.811 0-.504-.092-1.692-1.554-1.692h-1.344v3.503z" class="B"/><path d="M10.855 22.307H8.558l-.241-1.69H5.381v2.978h2.957v2.287H5.381v3.43h2.928l.241-1.975h2.441l-.354 4.271H1.275v-2.295h1.304v-8.695H1.13v-2.288h9.484l.241 3.978z"/><path d="M53.315 18.329c3.087 0 5.506.411 5.506 4.032 0 2.804-2.271 3.869-4.738 3.869h-.785v3.083h1.433v2.295h-5.677v-2.295h1.445v-8.691h-1.445V18.33h4.262zm-.018 5.722h.778c1.302 0 1.941-.726 1.941-1.795 0-1.201-.624-1.746-1.938-1.746h-.78v3.541zm16.405 5.261h1.131v2.295H65.68v-2.295h1.135l-.528-1.707h-3.718l-.526 1.707h1.141v2.295h-5.153v-2.295h1.127l3.756-10.98h3.049l3.739 10.98zm-6.411-3.995h2.276l-1.138-3.908-1.138 3.909zm22.376-6.988c3.086 0 5.505.411 5.505 4.032 0 2.804-2.27 3.869-4.737 3.869h-.785v3.083h1.432v2.295h-5.676v-2.295h1.445v-8.691h-1.445V18.33h4.262zm-.018 5.722h.778c1.302 0 1.939-.726 1.939-1.795 0-1.201-.623-1.746-1.938-1.746h-.779v3.541z" class="B"/><path d="M120.849 20.617h-1.107v3.102l2.557-3.102h-.632v-2.288h4.788v2.288h-.49l-3.458 4.045 3.673 4.65h.66v2.295h-4.854v-2.295h.806l-3.05-3.954v3.954h1.21v2.295h-5.221v-2.295h1.212v-8.695h-1.212v-2.288h5.118v2.288zm-38.51-5.502l-5.049 2.114.957 3.288c-1.123-.44-2.254-.862-3.449-1.154l-5.884 2.491 2.968-4.405 5.924-2.985 4.533.651zM96.285 5.72L91.65 9.021c.557 1.221 1.946 2.327 2.116 3.644-.864-.875-3.531-1.596-4.494-1.925-1.819 1.04-3.244 1.402-5.249 2.009 1.404-1.435 2.393-3.023 3.559-4.695.089.093.22.157.342.186 1.68.402 3.188.099 4.739-.714l3.621-1.807z"/></g><g fill="#10519d"><path d="M41.272 18.332c4.18 0 5.425 2.973 5.425 6.829S45.452 32 41.272 32c-4.2 0-5.425-2.983-5.425-6.839s1.225-6.829 5.425-6.829zm0 2.176c-1.911 0-2.409 2.148-2.409 4.653s.498 4.653 2.409 4.653c1.895 0 2.408-2.148 2.408-4.653s-.514-4.653-2.408-4.653z" class="B"/><path d="M15.956 20.617h-1.113v6.794c.008.313.025.621.104.927.093.36.268.701.566.932.345.267.818.366 1.247.354.506-.014.98-.12 1.36-.468.449-.411.523-1.179.537-1.745v-6.793h-1.101v-2.288h5.127v2.288h-1.226v6.801c0 3.814-3.026 4.383-4.693 4.383-1.543 0-4.72-.554-4.72-4.383v-6.801h-1.437v-2.288h5.35v2.288z"/><path d="M29.353 18.329c2.849 0 4.348 1.234 4.386 3.638.022 1.47-.654 2.448-1.845 2.965.183.104.32.169.56.386.594.536.801 1.441.935 1.938.227.844.268 2.13 1.681 2.085v2.271l-.657-.001c-1.989 0-3.143-1.481-3.655-3.342-.115-.42-.222-.953-.455-1.38-.37-.596-.988-.663-1.623-.686l-.673-.002v3.11h.966v2.295h-5.222v-2.295H25.2v-8.695h-1.448v-2.288h5.601zm-1.352 5.693c1.523.002 2.898.007 2.898-1.811 0-.504-.092-1.692-1.554-1.692h-1.344v3.503zm81.889-5.693c2.848 0 4.348 1.235 4.384 3.638.023 1.47-.653 2.448-1.843 2.965.182.104.319.169.56.386.593.536.802 1.441.935 1.938.226.844.182 2.096 1.807 2.055v2.295l-.784.004c-1.988 0-3.142-1.482-3.653-3.342-.115-.42-.222-.953-.455-1.38-.37-.596-.989-.663-1.623-.686l-.673-.002v3.11h.965v2.295H99.069V29.31h1.135l-.527-1.707h-3.718l-.528 1.707h1.144v2.294H91.42V29.31h1.127l3.755-10.98h3.049l3.739 10.98h2.646v-8.695h-1.448v-2.288h5.602zm-13.21 6.988h2.275l-1.137-3.91-1.138 3.91zm11.858-1.295c1.524.002 2.898.007 2.898-1.811 0-.504-.093-1.692-1.554-1.692h-1.344v3.503z" class="B"/><path d="M9.744 22.307H7.449l-.241-1.69H4.27v2.978h2.958v2.287H4.27v3.43h2.929l.24-1.975h2.442l-.354 4.271H.165v-2.295h1.302v-8.695H.02v-2.288h9.483l.241 3.978z"/><path d="M52.205 18.329c3.086 0 5.506.411 5.506 4.032 0 2.804-2.271 3.869-4.738 3.869h-.785v3.083h1.433v2.295h-5.678v-2.295h1.445v-8.691h-1.445V18.33h4.262zm-.019 5.722h.779c1.302 0 1.94-.726 1.94-1.795 0-1.201-.623-1.746-1.938-1.746h-.78v3.541zm16.406 5.261h1.131v2.295h-5.154v-2.295h1.135l-.528-1.707h-3.717l-.528 1.707h1.142v2.295H56.92v-2.295h1.127l3.755-10.98h3.05l3.739 10.98zm-6.411-3.995h2.276l-1.139-3.908-1.137 3.909zm24.593-6.988c3.086 0 5.506.411 5.506 4.032 0 2.804-2.271 3.869-4.738 3.869h-.785v3.083h1.433v2.295h-5.677v-2.295h1.445v-8.691h-1.445V18.33h4.262zm-.018 5.722h.778c1.302 0 1.939-.726 1.939-1.795 0-1.201-.623-1.746-1.939-1.746h-.779v3.541z" class="B"/><path d="M121.956 20.617h-1.107v3.092l2.555-3.091h-.63v-2.288h4.986v2.288h-.69l-3.456 4.045 3.673 4.65h.853v2.295h-5.047v-2.295h.805l-3.049-3.942v3.942h1.21v2.295h-5.222v-2.295h1.212v-8.695h-1.212v-2.288h5.119v2.288z"/><g class="B"><path d="M130.829 18.695c.355 0 .528.133.528.429 0 .269-.166.382-.386.412l.428.661h-.281l-.392-.655h-.239v.655h-.226v-1.501h.568zm-.342.185v.476h.305c.233 0 .339-.071.339-.237s-.106-.239-.339-.239h-.305z"/><path d="M130.775 18.159c.719 0 1.303.584 1.303 1.301s-.584 1.301-1.303 1.301-1.3-.584-1.3-1.301.584-1.301 1.3-1.301zm0 .185c-.616 0-1.116.5-1.116 1.116s.5 1.116 1.116 1.116 1.116-.499 1.116-1.116-.499-1.116-1.116-1.116z"/></g></g><g fill="#fbc01c"><path d="M41.109 18.332c4.18 0 5.425 2.973 5.425 6.829S45.289 32 41.109 32c-4.2 0-5.425-2.983-5.425-6.839s1.225-6.829 5.425-6.829zm0 2.176c-1.911 0-2.409 2.148-2.409 4.653s.498 4.653 2.409 4.653c1.895 0 2.408-2.148 2.408-4.653s-.513-4.653-2.408-4.653z" class="B"/><path d="M15.794 20.617H14.68v6.794c.008.313.025.621.104.927.094.36.268.701.566.932.344.267.818.366 1.246.354.506-.014.98-.12 1.361-.468.449-.411.523-1.179.537-1.745v-6.793h-1.103v-2.288h5.127v2.288h-1.226v6.801c0 3.814-3.026 4.383-4.693 4.383-1.543 0-4.72-.554-4.72-4.383v-6.801h-1.437v-2.288h5.351v2.288z"/><path d="M29.191 18.329c2.848 0 4.347 1.235 4.383 3.638.023 1.47-.652 2.448-1.843 2.965.183.104.319.169.559.386.594.536.801 1.441.935 1.938.227.844.268 2.13 1.681 2.085v2.27h-.657c-1.988 0-3.144-1.481-3.655-3.342-.115-.42-.221-.953-.455-1.38-.37-.596-.988-.663-1.622-.686l-.674-.002v3.11h.966v2.295h-5.222v-2.295h1.448v-8.695h-1.448v-2.288h5.602zm-1.352 5.693c1.523.002 2.897.007 2.897-1.811 0-.504-.091-1.692-1.553-1.692h-1.344v3.503zm82.215-5.693c2.849 0 4.347 1.235 4.385 3.638.022 1.47-.654 2.448-1.844 2.965.183.104.319.169.56.386.594.536.802 1.441.935 1.938.227.844.182 2.096 1.808 2.055v2.295l-.784.004c-1.988 0-3.143-1.481-3.654-3.342-.115-.42-.222-.953-.455-1.38-.37-.596-.989-.663-1.623-.686l-.673-.002v3.11h.965v2.295H99.233V29.31h1.135l-.528-1.707h-3.717l-.526 1.707h1.141v2.294h-5.153V29.31h1.127l3.755-10.98h3.05l3.739 10.98h2.645v-8.695h-1.447v-2.288h5.601zm-13.21 6.988h2.276l-1.138-3.91-1.138 3.91zm11.858-1.295c1.523.002 2.898.007 2.898-1.811 0-.504-.093-1.692-1.554-1.692h-1.344v3.503z" class="B"/><path d="M9.582 22.307H7.285l-.241-1.69H4.108v2.978h2.958v2.287H4.108v3.43h2.928l.241-1.975h2.441l-.354 4.271H.001v-2.295h1.304v-8.695H0v-2.288h9.34l.242 3.978z"/><path d="M52.042 18.329c3.086 0 5.506.411 5.506 4.032 0 2.804-2.271 3.869-4.738 3.869h-.785v3.083h1.433v2.295h-5.677v-2.295h1.445v-8.691h-1.445V18.33h4.262zm-.018 5.722h.778c1.302 0 1.941-.726 1.941-1.795 0-1.201-.623-1.746-1.938-1.746h-.78v3.541zm16.404 5.261h1.131v2.295h-5.153v-2.295h1.135l-.528-1.707h-3.717l-.526 1.707h1.141v2.295h-5.153v-2.295h1.127l3.755-10.98h3.049l3.739 10.98zm-6.411-3.995h2.275l-1.137-3.908-1.138 3.909zm24.92-6.988c3.087 0 5.506.411 5.506 4.032 0 2.804-2.272 3.869-4.738 3.869h-.784v3.083h1.432v2.295h-5.676v-2.295h1.445v-8.691h-1.445V18.33h4.261zm-.017 5.722h.778c1.302 0 1.941-.726 1.941-1.795 0-1.201-.624-1.746-1.94-1.746h-.779v3.541z" class="B"/><path d="M122.12 20.617h-1.107v3.092l2.557-3.091h-.632V18.33h4.988v2.288h-.691l-3.457 4.045 3.674 4.65h.851v2.295h-5.046v-2.295h.804l-3.048-3.942v3.942h1.21v2.295H117v-2.295h1.214v-8.695H117V18.33h5.12v2.288zm-44.969-6.23c1.109.081 3.255-.052 4.996-.241-1.371.93-3.664 2.149-4.542 2.384.525 1.021.858 2.038 1.068 3.078-1.18-.592-2.49-1.265-4.376-1.308l-5.383 3.555 2.835-4.506-3.183-2.125 5.053-.4L76 11.172l1.151 3.216zM96.285 5.72c-.944.784-1.821 1.631-2.683 2.503 1.359.44 2.889 1.223 3.945 2.313-2.55-.581-4.014-.603-5.939-.564-1.582 2.072-4.029 3.101-6.234 4.38.976-1.893 2.307-4.288 2.209-6.297a1.58 1.58 0 0 0 .602.167c1.484.111 2.771-.197 4.029-.678 1.327-.509 2.62-1.212 4.071-1.825zm10.385-2.477c1.692-.442 3.358-.567 5.092-.35-4.795.756-6.68 2.357-7.341 4.641-1.738-.255-3.83-.854-6.15-2.684 1.551.286 3.293.359 5.65-.52a12.17 12.17 0 0 1 .173-4.33c.596 1.219 1.522 2.299 2.575 3.243z"/></g><path d="M108.249 3.392c1.151-.336 2.315-.497 3.513-.499-3.995.811-5.268 2.515-7.341 4.641-1.067-.414-2.062-.909-3.003-1.566 2.226-.322 3.643-1.286 4.476-1.573.946-1.612 2.2-2.888 3.772-3.897a9.55 9.55 0 0 0-1.417 2.894z" fill="#1e2b80"/></svg>