<svg width="93" height="93" viewBox="0 0 93 93" fill="none" xmlns="http://www.w3.org/2000/svg">
<rect x="0.928" y="0.928" width="90.944" height="90.944" rx="45.472" fill="white"/>
<rect x="0.928" y="0.928" width="90.944" height="90.944" rx="45.472" stroke="#EEEEEE" stroke-width="1.856"/>
<g clip-path="url(#clip0_16579_23254)">
<mask id="mask0_16579_23254" style="mask-type:luminance" maskUnits="userSpaceOnUse" x="23" y="23" width="47" height="47">
<path d="M69.75 23.55H23.75V69.55H69.75V23.55Z" fill="white"/>
</mask>
<g mask="url(#mask0_16579_23254)">
<mask id="mask1_16579_23254" style="mask-type:luminance" maskUnits="userSpaceOnUse" x="23" y="23" width="47" height="47">
<path d="M69.75 23.55H23.75V69.55H69.75V23.55Z" fill="white"/>
</mask>
<g mask="url(#mask1_16579_23254)">
<mask id="mask2_16579_23254" style="mask-type:alpha" maskUnits="userSpaceOnUse" x="23" y="28" width="47" height="37">
<path d="M53.0807 28.3418C53.626 28.3418 54.1455 28.574 54.5091 28.9804L69.0859 45.2721C69.7369 45.9998 69.7369 47.1005 69.0859 47.8282L54.5091 64.1198C54.1455 64.5262 53.626 64.7585 53.0807 64.7585H25.6411C23.9844 64.7585 23.108 62.7984 24.2127 61.5638L37.646 46.5501L24.2127 31.5365C23.108 30.3018 23.9844 28.3418 25.6411 28.3418H53.0807Z" fill="white"/>
</mask>
<g mask="url(#mask2_16579_23254)">
<path d="M53.9373 28.3418L37.6457 46.5501L21.354 28.3418H53.9373Z" fill="url(#paint0_linear_16579_23254)"/>
<g filter="url(#filter0_f_16579_23254)">
<path d="M53.9373 28.5334L21.354 64.9501H53.9373L70.229 46.7418L53.9373 28.5334Z" fill="black" fill-opacity="0.24"/>
</g>
<g filter="url(#filter1_f_16579_23254)">
<path d="M53.9373 29.3L21.354 65.7167H53.9373L70.229 47.5084L53.9373 29.3Z" fill="black" fill-opacity="0.32"/>
</g>
<path d="M21.354 64.7585L53.9373 28.3418L70.229 46.5501L53.9373 64.7585H21.354Z" fill="url(#paint1_linear_16579_23254)"/>
<path d="M21.354 64.7585L53.9373 28.3418L62.0832 37.446L37.6457 64.7585H21.354Z" fill="url(#paint2_linear_16579_23254)"/>
</g>
</g>
</g>
</g>
<defs>
<filter id="filter0_f_16579_23254" x="20.9707" y="28.1501" width="49.6417" height="37.1834" filterUnits="userSpaceOnUse" color-interpolation-filters="sRGB">
<feFlood flood-opacity="0" result="BackgroundImageFix"/>
<feBlend mode="normal" in="SourceGraphic" in2="BackgroundImageFix" result="shape"/>
<feGaussianBlur stdDeviation="0.191667" result="effect1_foregroundBlur_16579_23254"/>
</filter>
<filter id="filter1_f_16579_23254" x="17.5207" y="25.4667" width="56.5417" height="44.0834" filterUnits="userSpaceOnUse" color-interpolation-filters="sRGB">
<feFlood flood-opacity="0" result="BackgroundImageFix"/>
<feBlend mode="normal" in="SourceGraphic" in2="BackgroundImageFix" result="shape"/>
<feGaussianBlur stdDeviation="1.91667" result="effect1_foregroundBlur_16579_23254"/>
</filter>
<linearGradient id="paint0_linear_16579_23254" x1="44.354" y1="49.9043" x2="37.6457" y2="28.3418" gradientUnits="userSpaceOnUse">
<stop stop-color="#0D36A5"/>
<stop offset="1" stop-color="#1152D4"/>
</linearGradient>
<linearGradient id="paint1_linear_16579_23254" x1="45.7915" y1="28.3418" x2="45.7915" y2="64.7585" gradientUnits="userSpaceOnUse">
<stop stop-color="#84CAFF"/>
<stop offset="1" stop-color="#61B1FB"/>
</linearGradient>
<linearGradient id="paint2_linear_16579_23254" x1="41.7186" y1="28.3418" x2="41.7186" y2="64.7585" gradientUnits="userSpaceOnUse">
<stop stop-color="#3B90F5"/>
<stop offset="1" stop-color="#2A78EE"/>
</linearGradient>
<clipPath id="clip0_16579_23254">
<rect width="46" height="46" fill="white" transform="translate(23.75 23.55)"/>
</clipPath>
</defs>
</svg>
