<svg width="93" height="93" viewBox="0 0 93 93" fill="none" xmlns="http://www.w3.org/2000/svg">
<rect x="0.928" y="0.928" width="90.944" height="90.944" rx="45.472" fill="white"/>
<rect x="0.928" y="0.928" width="90.944" height="90.944" rx="45.472" stroke="#EEEEEE" stroke-width="1.856"/>
<g clip-path="url(#clip0_16579_23227)">
<g clip-path="url(#clip1_16579_23227)">
<path d="M46.2007 42.5686H60.5757C64.5452 42.5686 67.7632 45.8204 67.7632 49.8318V61.937C67.7632 65.9483 64.5452 69.2002 60.5757 69.2002C56.6061 69.2002 53.3882 65.9483 53.3882 61.937V49.8318C53.3882 45.8204 50.1702 42.5686 46.2007 42.5686Z" fill="url(#paint0_radial_16579_23227)"/>
<path d="M29.4297 47.4106C29.4297 43.3993 32.6477 40.1475 36.6172 40.1475H46.2005C50.1701 40.1475 53.388 43.3993 53.388 47.4106V61.9369C53.388 65.9483 56.606 69.2001 60.5755 69.2001L41.4088 69.2C34.7929 69.2 29.4297 63.7803 29.4297 57.0947V47.4106Z" fill="url(#paint1_radial_16579_23227)"/>
<path d="M29.4297 47.4106C29.4297 43.3993 32.6477 40.1475 36.6172 40.1475H46.2005C50.1701 40.1475 53.388 43.3993 53.388 47.4106V61.9369C53.388 65.9483 56.606 69.2001 60.5755 69.2001L41.4088 69.2C34.7929 69.2 29.4297 63.7803 29.4297 57.0947V47.4106Z" fill="url(#paint2_linear_16579_23227)" fill-opacity="0.7"/>
<path d="M29.4297 47.4106C29.4297 43.3993 32.6477 40.1475 36.6172 40.1475H46.2005C50.1701 40.1475 53.388 43.3993 53.388 47.4106V61.9369C53.388 65.9483 56.606 69.2001 60.5755 69.2001L41.4088 69.2C34.7929 69.2 29.4297 63.7803 29.4297 57.0947V47.4106Z" fill="url(#paint3_radial_16579_23227)" fill-opacity="0.7"/>
<path d="M59.3778 40.1475C62.6857 40.1475 65.3673 37.4376 65.3673 34.0949C65.3673 30.7521 62.6857 28.0422 59.3778 28.0422C56.0698 28.0422 53.3882 30.7521 53.3882 34.0949C53.3882 37.4376 56.0698 40.1475 59.3778 40.1475Z" fill="url(#paint4_radial_16579_23227)"/>
<path d="M59.3778 40.1475C62.6857 40.1475 65.3673 37.4376 65.3673 34.0949C65.3673 30.7521 62.6857 28.0422 59.3778 28.0422C56.0698 28.0422 53.3882 30.7521 53.3882 34.0949C53.3882 37.4376 56.0698 40.1475 59.3778 40.1475Z" fill="url(#paint5_radial_16579_23227)" fill-opacity="0.46"/>
<path d="M59.3778 40.1475C62.6857 40.1475 65.3673 37.4376 65.3673 34.0949C65.3673 30.7521 62.6857 28.0422 59.3778 28.0422C56.0698 28.0422 53.3882 30.7521 53.3882 34.0949C53.3882 37.4376 56.0698 40.1475 59.3778 40.1475Z" fill="url(#paint6_radial_16579_23227)" fill-opacity="0.4"/>
<path d="M41.4092 37.7265C45.3787 37.7265 48.5967 34.4747 48.5967 30.4634C48.5967 26.452 45.3787 23.2002 41.4092 23.2002C37.4396 23.2002 34.2217 26.452 34.2217 30.4634C34.2217 34.4747 37.4396 37.7265 41.4092 37.7265Z" fill="url(#paint7_radial_16579_23227)"/>
<path d="M41.4092 37.7265C45.3787 37.7265 48.5967 34.4747 48.5967 30.4634C48.5967 26.452 45.3787 23.2002 41.4092 23.2002C37.4396 23.2002 34.2217 26.452 34.2217 30.4634C34.2217 34.4747 37.4396 37.7265 41.4092 37.7265Z" fill="url(#paint8_radial_16579_23227)" fill-opacity="0.6"/>
<path d="M41.4092 37.7265C45.3787 37.7265 48.5967 34.4747 48.5967 30.4634C48.5967 26.452 45.3787 23.2002 41.4092 23.2002C37.4396 23.2002 34.2217 26.452 34.2217 30.4634C34.2217 34.4747 37.4396 37.7265 41.4092 37.7265Z" fill="url(#paint9_radial_16579_23227)" fill-opacity="0.5"/>
<path d="M39.9116 46.2002H28.5314C26.3812 46.2002 24.6382 47.9616 24.6382 50.1344V61.6344C24.6382 63.8072 26.3812 65.5686 28.5314 65.5686H39.9116C42.0618 65.5686 43.8048 63.8072 43.8048 61.6344V50.1344C43.8048 47.9616 42.0618 46.2002 39.9116 46.2002Z" fill="url(#paint10_radial_16579_23227)"/>
<path d="M39.9116 46.2002H28.5314C26.3812 46.2002 24.6382 47.9616 24.6382 50.1344V61.6344C24.6382 63.8072 26.3812 65.5686 28.5314 65.5686H39.9116C42.0618 65.5686 43.8048 63.8072 43.8048 61.6344V50.1344C43.8048 47.9616 42.0618 46.2002 39.9116 46.2002Z" fill="url(#paint11_radial_16579_23227)" fill-opacity="0.7"/>
<path d="M38.3896 52.3804H35.4582V61.4182H32.9847V52.3804H30.0532V50.3506H38.3896V52.3804Z" fill="white"/>
</g>
</g>
<defs>
<radialGradient id="paint0_radial_16579_23227" cx="0" cy="0" r="1" gradientUnits="userSpaceOnUse" gradientTransform="translate(67.5198 45.2002) scale(16.146 40.2735)">
<stop stop-color="#A98AFF"/>
<stop offset="0.14" stop-color="#8C75FF"/>
<stop offset="0.565" stop-color="#5F50E2"/>
<stop offset="0.9" stop-color="#3C2CB8"/>
</radialGradient>
<radialGradient id="paint1_radial_16579_23227" cx="0" cy="0" r="1" gradientTransform="matrix(14.5996 36.8 -36.8293 14.9205 30.403 38.2106)" gradientUnits="userSpaceOnUse">
<stop stop-color="#85C2FF"/>
<stop offset="0.69" stop-color="#7588FF"/>
<stop offset="1" stop-color="#6459FE"/>
</radialGradient>
<linearGradient id="paint2_linear_16579_23227" x1="44.5159" y1="40.1475" x2="44.5159" y2="69.2001" gradientUnits="userSpaceOnUse">
<stop offset="0.801159" stop-color="#6864F6" stop-opacity="0"/>
<stop offset="1" stop-color="#5149DE"/>
</linearGradient>
<radialGradient id="paint3_radial_16579_23227" cx="0" cy="0" r="1" gradientTransform="matrix(-9.11595 21.3631 -16.9701 -7.39466 52.7891 39.179)" gradientUnits="userSpaceOnUse">
<stop stop-color="#BD96FF"/>
<stop offset="0.686685" stop-color="#BD96FF" stop-opacity="0"/>
</radialGradient>
<radialGradient id="paint4_radial_16579_23227" cx="0" cy="0" r="1" gradientUnits="userSpaceOnUse" gradientTransform="translate(59.3778 32.3655) rotate(-90) scale(12.1053 15.1196)">
<stop offset="0.268201" stop-color="#6868F7"/>
<stop offset="1" stop-color="#3923B1"/>
</radialGradient>
<radialGradient id="paint5_radial_16579_23227" cx="0" cy="0" r="1" gradientTransform="matrix(6.55289 5.56658 -7.96755 9.57778 54.4275 31.1218)" gradientUnits="userSpaceOnUse">
<stop offset="0.270711" stop-color="#A1D3FF"/>
<stop offset="0.813393" stop-color="#A1D3FF" stop-opacity="0"/>
</radialGradient>
<radialGradient id="paint6_radial_16579_23227" cx="0" cy="0" r="1" gradientTransform="matrix(7.61885 -6.84951 16.6273 18.8863 64.1481 30.9095)" gradientUnits="userSpaceOnUse">
<stop stop-color="#E3ACFD"/>
<stop offset="0.816041" stop-color="#9FA2FF" stop-opacity="0"/>
</radialGradient>
<radialGradient id="paint7_radial_16579_23227" cx="0" cy="0" r="1" gradientUnits="userSpaceOnUse" gradientTransform="translate(41.4092 28.3882) rotate(-90) scale(14.5263 18.1436)">
<stop offset="0.268201" stop-color="#8282FF"/>
<stop offset="1" stop-color="#3923B1"/>
</radialGradient>
<radialGradient id="paint8_radial_16579_23227" cx="0" cy="0" r="1" gradientTransform="matrix(7.86346 6.67988 -9.56102 11.4933 35.469 26.8957)" gradientUnits="userSpaceOnUse">
<stop offset="0.270711" stop-color="#A1D3FF"/>
<stop offset="0.813393" stop-color="#A1D3FF" stop-opacity="0"/>
</radialGradient>
<radialGradient id="paint9_radial_16579_23227" cx="0" cy="0" r="1" gradientTransform="matrix(9.14262 -8.21941 19.9528 22.6636 47.1337 26.6409)" gradientUnits="userSpaceOnUse">
<stop stop-color="#E3ACFD"/>
<stop offset="0.816041" stop-color="#9FA2FF" stop-opacity="0"/>
</radialGradient>
<radialGradient id="paint10_radial_16579_23227" cx="0" cy="0" r="1" gradientTransform="matrix(19.1667 19.3684 -19.1667 19.3684 24.6382 46.2002)" gradientUnits="userSpaceOnUse">
<stop offset="0.046875" stop-color="#688EFF"/>
<stop offset="0.946875" stop-color="#230F94"/>
</radialGradient>
<radialGradient id="paint11_radial_16579_23227" cx="0" cy="0" r="1" gradientUnits="userSpaceOnUse" gradientTransform="translate(34.2215 57.8212) rotate(90) scale(13.5579 15.657)">
<stop offset="0.570647" stop-color="#6965F6" stop-opacity="0"/>
<stop offset="1" stop-color="#8F8FFF"/>
</radialGradient>
<clipPath id="clip0_16579_23227">
<rect width="46" height="46" fill="white" transform="translate(23.2002 23.2002)"/>
</clipPath>
<clipPath id="clip1_16579_23227">
<rect width="43.125" height="46" fill="white" transform="translate(24.6377 23.2002)"/>
</clipPath>
</defs>
</svg>
