<svg width="93" height="93" viewBox="0 0 93 93" fill="none" xmlns="http://www.w3.org/2000/svg">
<rect x="0.928" y="0.928" width="90.944" height="90.944" rx="45.472" fill="white"/>
<rect x="0.928" y="0.928" width="90.944" height="90.944" rx="45.472" stroke="#EEEEEE" stroke-width="1.856"/>
<path d="M41.9585 50.3833C48.3098 50.3833 53.4585 45.2346 53.4585 38.8833C53.4585 32.532 48.3098 27.3833 41.9585 27.3833C35.6072 27.3833 30.4585 32.532 30.4585 38.8833C30.4585 45.2346 35.6072 50.3833 41.9585 50.3833Z" fill="url(#paint0_linear_16579_23231)"/>
<path d="M41.9585 50.3833C48.3098 50.3833 53.4585 45.2346 53.4585 38.8833C53.4585 32.532 48.3098 27.3833 41.9585 27.3833C35.6072 27.3833 30.4585 32.532 30.4585 38.8833C30.4585 45.2346 35.6072 50.3833 41.9585 50.3833Z" fill="url(#paint1_radial_16579_23231)" fill-opacity="0.2"/>
<path d="M41.9585 50.3833C48.3098 50.3833 53.4585 45.2346 53.4585 38.8833C53.4585 32.532 48.3098 27.3833 41.9585 27.3833C35.6072 27.3833 30.4585 32.532 30.4585 38.8833C30.4585 45.2346 35.6072 50.3833 41.9585 50.3833Z" fill="url(#paint2_radial_16579_23231)" fill-opacity="0.31"/>
<path d="M41.9585 50.3833C48.3098 50.3833 53.4585 45.2346 53.4585 38.8833C53.4585 32.532 48.3098 27.3833 41.9585 27.3833C35.6072 27.3833 30.4585 32.532 30.4585 38.8833C30.4585 45.2346 35.6072 50.3833 41.9585 50.3833Z" fill="url(#paint3_radial_16579_23231)" fill-opacity="0.7"/>
<path d="M52.4476 58.05C57.7404 58.05 62.0309 53.7593 62.0309 48.4666C62.0309 43.174 57.7404 38.8833 52.4476 38.8833C47.1549 38.8833 42.8643 43.174 42.8643 48.4666C42.8643 53.7593 47.1549 58.05 52.4476 58.05Z" fill="url(#paint4_linear_16579_23231)"/>
<path d="M52.4476 58.05C57.7404 58.05 62.0309 53.7593 62.0309 48.4666C62.0309 43.174 57.7404 38.8833 52.4476 38.8833C47.1549 38.8833 42.8643 43.174 42.8643 48.4666C42.8643 53.7593 47.1549 58.05 52.4476 58.05Z" fill="url(#paint5_radial_16579_23231)" fill-opacity="0.5"/>
<path d="M52.4476 58.05C57.7404 58.05 62.0309 53.7593 62.0309 48.4666C62.0309 43.174 57.7404 38.8833 52.4476 38.8833C47.1549 38.8833 42.8643 43.174 42.8643 48.4666C42.8643 53.7593 47.1549 58.05 52.4476 58.05Z" fill="url(#paint6_radial_16579_23231)" fill-opacity="0.7"/>
<path d="M43.3958 65.7167C47.8946 65.7167 51.5417 62.0697 51.5417 57.5709C51.5417 53.0721 47.8946 49.425 43.3958 49.425C38.897 49.425 35.25 53.0721 35.25 57.5709C35.25 62.0697 38.897 65.7167 43.3958 65.7167Z" fill="url(#paint7_linear_16579_23231)"/>
<path d="M43.3958 65.7167C47.8946 65.7167 51.5417 62.0697 51.5417 57.5709C51.5417 53.0721 47.8946 49.425 43.3958 49.425C38.897 49.425 35.25 53.0721 35.25 57.5709C35.25 62.0697 38.897 65.7167 43.3958 65.7167Z" fill="url(#paint8_linear_16579_23231)" fill-opacity="0.32"/>
<path d="M39.8022 45.5918H30.6981C28.9779 45.5918 27.5835 46.9862 27.5835 48.7064V57.8105C27.5835 59.5307 28.9779 60.9251 30.6981 60.9251H39.8022C41.5224 60.9251 42.9168 59.5307 42.9168 57.8105V48.7064C42.9168 46.9862 41.5224 45.5918 39.8022 45.5918Z" fill="url(#paint9_radial_16579_23231)"/>
<path d="M39.8022 45.5918H30.6981C28.9779 45.5918 27.5835 46.9862 27.5835 48.7064V57.8105C27.5835 59.5307 28.9779 60.9251 30.6981 60.9251H39.8022C41.5224 60.9251 42.9168 59.5307 42.9168 57.8105V48.7064C42.9168 46.9862 41.5224 45.5918 39.8022 45.5918Z" fill="url(#paint10_radial_16579_23231)" fill-opacity="0.6"/>
<path d="M31.9492 55.8302L33.6104 54.9906C33.7977 55.3572 34.0419 55.6272 34.3432 55.8006C34.6486 55.9741 34.9824 56.0608 35.3448 56.0608C35.7479 56.0608 36.0553 55.982 36.267 55.8243C36.4788 55.6627 36.5846 55.4203 36.5846 55.0971C36.5846 54.8448 36.4828 54.6319 36.2793 54.4586C36.0757 54.2812 35.7154 54.1472 35.1983 54.0566C34.213 53.8831 33.4964 53.5796 33.0485 53.146C32.6047 52.7125 32.3828 52.1725 32.3828 51.5261C32.3828 50.722 32.676 50.0796 33.2623 49.5987C33.8485 49.1179 34.6221 48.8774 35.583 48.8774C36.2304 48.8774 36.8004 49.0056 37.2931 49.2617C37.7857 49.5179 38.1766 49.8845 38.4656 50.3614L36.8411 51.1714C36.6619 50.9034 36.4685 50.7103 36.261 50.592C36.0533 50.4698 35.7927 50.4087 35.4792 50.4087C35.1046 50.4087 34.8196 50.4875 34.6242 50.6452C34.4328 50.8028 34.3371 51.0078 34.3371 51.2601C34.3371 51.4768 34.4287 51.668 34.612 51.8335C34.7992 51.9951 35.1738 52.1271 35.7357 52.2297C36.6803 52.4031 37.3846 52.7184 37.8488 53.1756C38.3171 53.6289 38.5511 54.2023 38.5511 54.8961C38.5511 55.7396 38.2722 56.4076 37.7145 56.9003C37.1566 57.393 36.3607 57.6393 35.3265 57.6393C34.5774 57.6393 33.9014 57.4816 33.2989 57.1664C32.7004 56.8471 32.2505 56.4017 31.9492 55.8302Z" fill="white"/>
<path d="M31.9468 55.9149L33.6091 55.0471C33.7964 55.4259 34.0409 55.7051 34.3424 55.8843C34.6479 56.0636 34.982 56.1532 35.3446 56.1532C35.748 56.1532 36.0556 56.0717 36.2674 55.9087C36.4793 55.7417 36.5852 55.4912 36.5852 55.1571C36.5852 54.8963 36.4833 54.6763 36.2797 54.497C36.0759 54.3137 35.7154 54.1752 35.198 54.0815C34.212 53.9023 33.4949 53.5885 33.0468 53.1404C32.6027 52.6922 32.3807 52.134 32.3807 51.4659C32.3807 50.6347 32.674 49.9707 33.2607 49.4736C33.8474 48.9765 34.6215 48.728 35.583 48.728C36.2308 48.728 36.8011 48.8605 37.2942 49.1253C37.7871 49.39 38.1782 49.769 38.4674 50.2619L36.8419 51.0992C36.6626 50.8222 36.4691 50.6226 36.2614 50.5003C36.0535 50.374 35.7928 50.3108 35.4791 50.3108C35.1043 50.3108 34.8191 50.3924 34.6235 50.5553C34.432 50.7183 34.3363 50.9301 34.3363 51.1908C34.3363 51.4149 34.428 51.6125 34.6113 51.7837C34.7987 51.9507 35.1736 52.0872 35.7357 52.1931C36.6809 52.3724 37.3858 52.6983 37.8503 53.171C38.3188 53.6394 38.553 54.2322 38.553 54.9492C38.553 55.8211 38.274 56.5117 37.7158 57.021C37.1576 57.5302 36.3611 57.7849 35.3263 57.7849C34.5766 57.7849 33.9003 57.6219 33.2974 57.296C32.6985 56.966 32.2483 56.5056 31.9468 55.9149Z" fill="white"/>
<defs>
<linearGradient id="paint0_linear_16579_23231" x1="33.3335" y1="30.2583" x2="48.6668" y2="50.3833" gradientUnits="userSpaceOnUse">
<stop stop-color="#00E3DF"/>
<stop offset="0.410156" stop-color="#0097A8"/>
<stop offset="1" stop-color="#007791"/>
</linearGradient>
<radialGradient id="paint1_radial_16579_23231" cx="0" cy="0" r="1" gradientUnits="userSpaceOnUse" gradientTransform="translate(45.4773 53.5648) rotate(-112.448) scale(17.6583 31.7487)">
<stop offset="0.28573" stop-color="#003B5D"/>
<stop offset="0.612265" stop-color="#004A6C" stop-opacity="0.688298"/>
<stop offset="0.968041" stop-color="#006F94" stop-opacity="0"/>
</radialGradient>
<radialGradient id="paint2_radial_16579_23231" cx="0" cy="0" r="1" gradientUnits="userSpaceOnUse" gradientTransform="translate(45.8833 48.4909) rotate(-112.063) scale(14.9039 26.7636)">
<stop offset="0.259744" stop-color="#002A42"/>
<stop offset="0.612265" stop-color="#004261" stop-opacity="0.688298"/>
<stop offset="0.968041" stop-color="#006F94" stop-opacity="0"/>
</radialGradient>
<radialGradient id="paint3_radial_16579_23231" cx="0" cy="0" r="1" gradientUnits="userSpaceOnUse" gradientTransform="translate(48.5217 28.601) rotate(124.447) scale(12.4686)">
<stop stop-color="#78EDFF"/>
<stop offset="1" stop-color="#2CCFCA" stop-opacity="0"/>
</radialGradient>
<linearGradient id="paint4_linear_16579_23231" x1="45.2601" y1="41.2791" x2="58.0378" y2="58.05" gradientUnits="userSpaceOnUse">
<stop stop-color="#00E3DF"/>
<stop offset="0.476427" stop-color="#00A2B8"/>
<stop offset="0.945063" stop-color="#00637C"/>
</linearGradient>
<radialGradient id="paint5_radial_16579_23231" cx="0" cy="0" r="1" gradientUnits="userSpaceOnUse" gradientTransform="translate(46.9571 56.4527) rotate(-70.8012) scale(11.839 21.3313)">
<stop stop-color="#003B5D"/>
<stop offset="0.492035" stop-color="#004C6C" stop-opacity="0.72"/>
<stop offset="0.968041" stop-color="#007A86" stop-opacity="0"/>
</radialGradient>
<radialGradient id="paint6_radial_16579_23231" cx="0" cy="0" r="1" gradientUnits="userSpaceOnUse" gradientTransform="translate(57.917 39.8981) rotate(124.447) scale(10.3905)">
<stop stop-color="#78EDFF"/>
<stop offset="1" stop-color="#2CCFCA" stop-opacity="0"/>
</radialGradient>
<linearGradient id="paint7_linear_16579_23231" x1="37.6938" y1="50.2396" x2="45.8396" y2="66.5313" gradientUnits="userSpaceOnUse">
<stop offset="0.0534989" stop-color="#75FFF6"/>
<stop offset="0.51144" stop-color="#00C7D1"/>
<stop offset="0.96002" stop-color="#0096AD"/>
</linearGradient>
<linearGradient id="paint8_linear_16579_23231" x1="51.5043" y1="65.7175" x2="47.1514" y2="59.6081" gradientUnits="userSpaceOnUse">
<stop offset="0.259744" stop-color="#0E5A5D"/>
<stop offset="0.535716" stop-color="#126C6B" stop-opacity="0.688298"/>
<stop offset="0.968041" stop-color="#1C948A" stop-opacity="0"/>
</linearGradient>
<radialGradient id="paint9_radial_16579_23231" cx="0" cy="0" r="1" gradientUnits="userSpaceOnUse" gradientTransform="translate(27.5835 45.5918) rotate(45) scale(21.6846)">
<stop offset="0.0625" stop-color="#00B6BD"/>
<stop offset="0.890131" stop-color="#00495C"/>
</radialGradient>
<radialGradient id="paint10_radial_16579_23231" cx="0" cy="0" r="1" gradientUnits="userSpaceOnUse" gradientTransform="translate(35.2502 54.7918) rotate(90) scale(10.7333 12.2187)">
<stop offset="0.566964" stop-color="#1E8581" stop-opacity="0"/>
<stop offset="0.973806" stop-color="#1ECBE6"/>
</radialGradient>
</defs>
</svg>
