<svg viewBox="0 0 47 32" xmlns:xlink="http://www.w3.org/1999/xlink" xmlns="http://www.w3.org/2000/svg" xmlns:v="https://vecta.io/nano" width="47" height="32" fill="#244ba5"><path fill-rule="evenodd" d="M31.937 24.027c1.642 0 4.029.995 4.22 3.848.035.544-.019 1.154-.225 1.672C35.673 30.249 34.6 32 31.989 32c-2.905 0-4.393-1.99-4.393-4.007 0-2.813 2.49-3.967 4.341-3.967zm-.017.504c-1.782 0-1.816 1.831-1.816 3.423 0 2.149.191 2.521.329 2.786.224.425.708.823 1.505.823 1.78 0 1.78-1.91 1.763-3.675-.016-1.924-.138-2.163-.242-2.401-.293-.663-.83-.955-1.539-.955z"/><path d="M5.277 21.838H3.876v4.179h3.65v-4.179H6.159v-.544h4.98v.544H9.861v9.433h1.279v.544H6.16v-.544h1.367v-4.63h-3.65v4.63h1.401v.544H.245v-.544h1.28v-9.433H.245v-.544h5.032v.544zM15.44 31.27h1.142v.544h-4.635v-.544h1.229v-6.461h-1.229v-.544h3.493v7.005zm5.179 0h1.194v.544h-4.739v-.544h1.262V20.445h-1.262v-.531h3.545V31.27zm22.376-7.257c.138 0 .553 0 1.038.133 1.453.438 1.522 1.539 1.522 2.335v4.789h1.194v.544h-4.498v-.544h1.003v-4.444c0-.995 0-1.99-1.106-1.99-.622 0-1.642.624-1.885 1.645-.086.318-.069.65-.069 1.473v3.317h1.141v.544H36.7v-.544h1.227V24.81H36.7v-.544h3.493v1.154c.381-.491.691-.836 1.435-1.128.536-.225 1.02-.279 1.367-.279zm-17.421.252h1.765v.544h-1.765v6.461h1.799v.544h-2.006c-1.246 0-1.92-.65-1.92-1.632v-5.373h-1.229v-.544h1.229V21.28h2.127v2.985zm-10.221-1.724H13.07v-1.247h2.283v1.247zM22.62 0c6.168 0 14.018 4.14 14.018 9.938 0 4.803-5.437 8.211-12.503 8.211-4.653 0-9.995-2.36-9.995-6.181 0-2.494 2.47-3.995 4.993-4.499V3.993h3.898V7.43c2.235.279 4.419 1.644 4.419 3.966 0 1.977-1.568 3.741-5.274 3.449v-.184c1.286.199 2.777-.345 3.574-1.247h-.849V8.941c-.39-.265-1.027-.595-1.87-.755v5.227h-3.898V8.822c1.061-.836 3.118-1.18 4.444-.941-.625-.172-1.445-.371-2.323-.371-3.172 0-5.299 1.923-5.299 4.643 0 3.144 3.167 5.334 7.247 5.334 7.968 0 11.763-4.616 11.763-8.172 0-6.806-7.313-7.749-11.383-7.749-5.756 0-12.224 2.959-12.591 8.213 0 2.468 1.255 4.272 2.645 5.426l-.131.092c-1.758-1.446-3.152-3.528-3.152-6.008C10.353 4.485 15.555 0 22.62 0z"/><path d="M28.63 13.414h-1.22a3.23 3.23 0 0 0 .58-1.87c0-1.698-1.152-3.051-3.259-3.701V3.993h3.898v9.421z"/></svg>