<svg viewBox="0 0 33 32" xmlns:xlink="http://www.w3.org/1999/xlink" xmlns="http://www.w3.org/2000/svg" xmlns:v="https://vecta.io/nano" width="33" height="32" fill="none"><path fill-rule="evenodd" d="M.932.022c.388-.059.715.148 1.076.254.831.244 1.743.425 2.621.606l3.638.665c4.856.707 11.283.715 16.155-.02 1.175-.177 2.425-.438 3.618-.685.808-.166 1.767-.372 2.601-.626.307-.093.611-.237.861-.215.41.036.731.37.743.802.007.235-.149.554-.235.841-.244.815-.448 1.764-.626 2.601a69.34 69.34 0 0 0-.665 3.618c-.747 4.802-.715 11.246-.02 16.097.271 1.893.62 3.669 1.056 5.398.071.283.133.579.215.86.079.272.205.531.254.802.095.516-.276.982-.821.978-.231-.002-.552-.148-.841-.235-.817-.246-1.755-.45-2.601-.626-1.169-.243-2.415-.486-3.618-.665-4.77-.706-11.253-.75-16.097-.02-1.868.282-3.653.622-5.379 1.056-.278.07-.57.13-.861.215-.445.13-1.056.445-1.486.078a.76.76 0 0 1-.274-.587c-.011-.282.126-.578.215-.88.239-.812.445-1.722.626-2.601.5-2.429.937-4.78 1.095-7.51.235-4.051.143-8.643-.411-12.283-.289-1.901-.628-3.622-1.076-5.379-.068-.27-.129-.571-.215-.861C.384 1.378.184 1.062.247.687.312.296.609.072.932.022z" fill="#dc281d"/><path d="M14.27 24.665c.205-.033.391-.025.528.039.494.232.574 1.431-.02 1.702-.271.124-.778.057-.959-.176-.275-.355-.189-1.237.138-1.467.087-.061.163-.074.313-.099zm3.735.02c.002.113.007.229-.039.294-.205.042-.487.009-.724.02-.045.085-.007.254-.019.371h.704c-.002.108.016.238-.039.294h-.665c-.138.596.457.509.841.43-.003.095.011.207-.02.274-.46.125-1.121.182-1.192-.314-.05-.348.038-.999 0-1.369h1.153zm.313 0c.118.006.263-.015.352.02.131.279-.139 1.183.098 1.389.152.132.413.014.645 0-.002.095.011.207-.019.274-.289.095-.769.15-.958-.039-.248-.248-.054-1.154-.117-1.644zm1.35.177c.154-.22.611-.247.958-.118.032.073.016.193.02.294-.156-.049-.607-.174-.665.039-.055.203.208.264.313.313.15.07.301.133.371.235a.59.59 0 0 1 0 .606c-.183.265-.731.295-1.056.098v-.235c.257.036.759.174.763-.137.002-.269-.507-.259-.685-.488-.107-.138-.151-.417-.019-.606zm-6.67-.177c.124.007.278-.015.372.021.045.535.007 1.153.02 1.721-.124-.006-.277.016-.372-.019-.04-.214-.011-.498-.02-.743h-.626c-.046.215-.006.515-.02.763-.114-.01-.269.022-.351-.019-.069-.236-.039-.534-.039-.821v-.9c.124.006.277-.015.371.021.042.186.009.447.019.664h.626c.045-.189.006-.463.019-.685zm2.289.04c.283-.087.914-.017 1.329-.04-.009.095.02.23-.02.294-.117.039-.301.011-.449.02-.046.437-.006.958-.02 1.428-.129-.008-.299.025-.372-.039v-1.389h-.488c.008-.09-.02-.215.02-.273zm-.979.254c-.418.131-.359 1.4.254 1.154.322-.13.358-1.345-.254-1.154zm-3.677-15.94c.323 0 .718-.054.899.117.249.235.137 1.264.137 1.741v1.878c.036.063.067-.028.078-.039.46-.39 1.14-.796 1.995-.803 2.072-.016 2.837 1.453 2.974 3.442.201 2.915-.804 4.809-3.403 5.085-.975.104-2.061-.005-2.914-.215-.257-.063-.613-.122-.744-.312-.153-.223-.078-.874-.078-1.291V9.097c-.002-.027-.003-.055.02-.059h1.037zm10.874 4.166c.57-.969 2.029-1.339 3.638-1.056.311.055.871.124 1.057.332.282.317.07.845.137 1.467-.46-.117-.967-.24-1.662-.293-.673-.051-1.462.009-1.428.665.02.393.535.618.938.802 1.288.587 2.724 1.139 2.582 3.129-.071.992-.701 1.646-1.486 1.976-.821.346-2.267.336-3.306.078-.205-.051-.42-.1-.528-.215-.27-.285-.114-.942-.156-1.486.497.105 1.027.233 1.721.293.782.067 1.736.011 1.702-.782-.027-.632-.943-.937-1.506-1.193-.616-.28-1.248-.639-1.585-1.095-.528-.715-.506-1.96-.117-2.621zm-2.522-1.056c.33 0 .725-.047.899.137.138.145.117.578.117.919v7.178h-.997c-.311 0-.728.059-.92-.078s-.176-.497-.176-.86v-7.236c-.002-.028-.003-.055.02-.059h1.057zm-12.028 0c.319 0 .727-.047.899.117.115.109.134.356.137.626v7.49H6.956c-.319 0-.736.058-.92-.098-.16-.136-.137-.549-.137-.899v-7.178c-.002-.028-.003-.055.02-.059h1.037zm6.786 1.643c-.584-.342-1.334.005-1.701.293-.151.118-.344.277-.372.392-.033.135 0 .35 0 .528v3.774c.836.26 1.69.234 2.21-.215.531-.459.709-1.498.665-2.445-.046-.996-.198-1.974-.802-2.327zm5.203-4.753c.333 0 .706-.054.899.098.368.288.046 1.303.156 1.839h-.977c-.332 0-.713.067-.92-.059-.408-.247-.094-1.273-.195-1.819-.002-.028-.003-.055.02-.059h1.018zm-11.989 0c.33 0 .722-.051.899.117.334.316.032 1.277.137 1.819H6.956c-.329 0-.733.06-.92-.098-.34-.288-.027-1.271-.137-1.78-.002-.028-.003-.055.02-.059h1.037z" fill="#fff"/></svg>