<svg viewBox="0 0 78 18" xmlns:xlink="http://www.w3.org/1999/xlink" xmlns="http://www.w3.org/2000/svg" xmlns:v="https://vecta.io/nano" width="78" height="18" fill="none"><path d="M45.133 15.935c0 .145.046.229.13.229a.39.39 0 0 0 .184-.077L69.291.612c.403-.282.886-.426 1.377-.413h5.24c.803 0 1.346.535 1.346 1.339v10.006c0 1.209-.268 1.912-1.339 2.555l-6.357 3.825c-.063.044-.137.07-.214.076-.076 0-.153-.061-.153-.283V6.043c0-.138-.038-.229-.13-.229a.36.36 0 0 0-.184.076L51.451 17.212c-.398.268-.864.413-1.339.405H38.561c-.811 0-1.346-.535-1.346-1.346V1.851c0-.107-.046-.207-.138-.207-.067.009-.13.035-.184.077l-11.498 6.9c-.115.076-.145.13-.145.184 0 .046.023.092.1.176l8.216 8.208c.107.107.184.191.184.283 0 .076-.122.138-.268.138h-7.42c-.581 0-1.033-.084-1.346-.398l-4.98-4.972c-.019-.023-.042-.041-.069-.054s-.055-.021-.084-.022a.33.33 0 0 0-.153.046l-8.323 5.003c-.505.306-.849.39-1.346.39H2.102a1.26 1.26 0 0 1-1.354-1.339V6.449c0-1.216.268-1.912 1.346-2.555L8.49.054A.33.33 0 0 1 8.658 0c.099 0 .153.099.153.321v13.142c0 .138.031.199.13.199a.46.46 0 0 0 .191-.076L30.736.589c.413-.283.918-.421 1.423-.398h11.628c.803 0 1.346.535 1.346 1.339l-.008 14.405h.008z" fill="#131e29"/></svg>