<svg viewBox="0 0 97 20" xmlns:xlink="http://www.w3.org/1999/xlink" xmlns="http://www.w3.org/2000/svg" xmlns:v="https://vecta.io/nano" width="97" height="20" fill="none"><path d="M4.224 16.746V0H.785v20h11.884v-3.254H4.224zm68.068-2.507c0-2.693-1.174-4.212-3.227-4.826v-.054c1.52-.639 2.56-1.999 2.56-4.32 0-3.28-1.947-5.039-5.84-5.039h-6.961v20h7.094c4.533 0 6.374-2.161 6.374-5.761zM68.852 14c0 2.293-.986 2.986-2.853 2.986h-3.866v-5.893h3.733c2.107 0 2.986.827 2.986 2.907zm-.533-8.32c0 1.84-.773 2.667-2.56 2.667h-3.6v-5.28h3.52c1.84 0 2.64.639 2.64 2.613zM83.399 0l-2.653 13.304-.373 2.24h-.08l-.347-2.267L77.307 0h-3.614l4.267 20h4.32l2.56-13.115.373-2.429h.08l.347 2.429L88.226 20h4.213l4.268-20h-3.48l-2.668 13.196-.373 2.268h-.08l-.347-2.24L87.106 0h-3.708zM28.756 14.239c0-2.693-1.174-4.212-3.227-4.826v-.054c1.52-.639 2.56-1.999 2.56-4.32C28.09 1.76 26.143 0 22.25 0h-6.96v20h7.093c4.534 0 6.373-2.161 6.373-5.761zM25.316 14c0 2.293-.987 2.986-2.853 2.986h-3.867v-5.893h3.733c2.107 0 2.987.827 2.987 2.907zm-.533-8.32c0 1.84-.773 2.667-2.56 2.667h-3.601v-5.28h3.521c1.84 0 2.64.639 2.64 2.613zM53.268 0H33.274v3.988h19.994V0zm0 7.999H33.274v3.987h19.994V7.999zm0 12.001H33.274v-3.989h19.994V20z" fill="#123250"/></svg>