<svg viewBox="0 0 114 32" xmlns:xlink="http://www.w3.org/1999/xlink" xmlns="http://www.w3.org/2000/svg" xmlns:v="https://vecta.io/nano" width="114" height="32" fill="none"><path d="M111.696 4.129H41.669c-1.571 0-2.656-.589-4.032-1.335-1.006-.546-4.915-2.782-9.68-2.793V0h-.034v.001c-4.765.011-8.675 2.246-9.681 2.793-1.375.746-2.46 1.335-4.031 1.335H2.265C1.017 4.129 0 5.182 0 6.48V25.52c0 1.298 1.017 2.351 2.265 2.351H14.21c1.571 0 2.656.59 4.031 1.335 1.006.546 4.916 2.783 9.681 2.794h.034c4.765-.011 8.674-2.247 9.68-2.794 1.376-.745 2.461-1.335 4.032-1.335h70.027c1.251 0 2.266-1.053 2.266-2.351V6.48c0-1.297-1.015-2.351-2.266-2.351z" fill="#db042c"/><path d="M27.994 6.824c-2.916 0-5.409.798-7.414 2.365-2.275 1.788-3.378 3.999-3.378 6.765 0 2.817 1.087 5.042 3.328 6.797 1.969 1.549 4.479 2.334 7.463 2.334 2.946 0 5.441-.776 7.412-2.312 2.243-1.753 3.333-3.988 3.333-6.819 0-2.766-1.099-4.977-3.364-6.768-1.965-1.565-4.452-2.362-7.382-2.362zm0 1.592c2.357 0 4.369.617 5.977 1.837 1.904 1.449 2.871 3.368 2.871 5.7 0 2.235-.829 4.082-2.468 5.481-1.605 1.369-3.751 2.064-6.38 2.064-2.643 0-4.801-.689-6.415-2.046-1.646-1.39-2.484-3.242-2.484-5.499 0-2.187.853-4.019 2.531-5.442 1.641-1.391 3.785-2.096 6.368-2.096zm-13.44 1.071c-.089.001-.099.111-.099.111l-.689 2.397c-.033.111-.056.212.069.212l.745-.003s.09-.003.124-.077l1.114-2.47s.073-.169-.104-.169-1.072-.001-1.16 0zm31.766 1.132c-1.573 0-2.793.276-3.657.831s-1.294 1.309-1.294 2.267c0 .93.38 1.591 1.138 1.985.652.339 1.787.564 3.406.676l3.367.351c.796.216 1.195.65 1.195 1.3 0 .552-.304.989-.91 1.307-.632.329-1.524.497-2.673.497-1.775 0-3.429-.49-4.967-1.466l-.895 1.225c1.394 1.146 3.344 1.719 5.846 1.719 1.73 0 3.054-.296 3.977-.887s1.385-1.43 1.385-2.509c0-.845-.294-1.498-.884-1.958s-1.496-.774-2.727-.942l-2.686-.225c-.922-.057-1.587-.161-1.994-.31-.571-.205-.856-.537-.856-.987 0-.432.267-.771.8-1.015s1.304-.365 2.306-.365c1.512 0 2.995.384 4.45 1.154l.992-1.141c-1.429-1.005-3.201-1.506-5.319-1.506zm-39.958.253v10.2h9.213v-1.525H7.993v-8.675h-1.63zm46.918 0v1.522h4.691v8.677h1.63v-8.677h4.694v-1.522H53.28zm12.966 0V21.07H76.53v-1.523h-8.656V16.53h5.754v-1.517h-5.754v-2.62h8.277v-1.522h-9.904zm12.511 0v10.2h1.63V17.18h4.959l2.658 3.891h1.894l-2.633-3.977c.78-.131 1.389-.44 1.832-.928.477-.524.72-1.22.72-2.083 0-.988-.294-1.77-.882-2.347s-1.398-.866-2.429-.866h-7.748zm13.73 0v10.2h1.629v-10.2h-1.629zm4.669 0v10.2h1.608v-2.59h7.259v2.59h1.686v-7.208c-.042-.881-.341-1.593-.883-2.126-.589-.577-1.398-.866-2.427-.866h-7.243zm-16.77 1.522h5.722c1.358 0 2.036.564 2.036 1.691 0 1.051-.629 1.577-1.885 1.577h-5.873v-3.269zm18.378 0h5.241c1.288 0 1.957.517 2.018 1.537v3.007h-7.259v-4.544z" fill="#fff"/></svg>