<svg viewBox="0 0 122 26" xmlns:xlink="http://www.w3.org/1999/xlink" xmlns="http://www.w3.org/2000/svg" xmlns:v="https://vecta.io/nano" width="122" height="26" fill="none"><g clip-path="url(#A)"><path d="M50.7 5.2v15.6h-2.708V8.558h-.036L43.117 20.8h-1.806L36.364 8.558h-.036V20.8h-2.492V5.2h3.9l4.478 11.556h.072L47.017 5.2H50.7zm2.239 1.192c0-.433.144-.794.469-1.083s.686-.433 1.119-.433c.47 0 .867.144 1.156.433a1.5 1.5 0 0 1 .469 1.083c0 .433-.144.794-.469 1.083a1.64 1.64 0 0 1-1.156.433c-.469 0-.831-.144-1.119-.433-.289-.325-.469-.686-.469-1.083zm2.925 3.214V20.8h-2.636V9.606h2.636zm7.98 9.281a3.04 3.04 0 0 0 1.3-.289 5.7 5.7 0 0 0 1.3-.722v2.456c-.433.253-.903.433-1.444.542a8.89 8.89 0 0 1-1.77.181c-1.661 0-2.997-.506-4.008-1.553-1.047-1.047-1.553-2.383-1.553-3.972 0-1.806.542-3.286 1.589-4.442s2.528-1.733 4.478-1.733c.505 0 1.011.072 1.481.181a4.92 4.92 0 0 1 1.192.433v2.528c-.397-.289-.831-.542-1.228-.686-.433-.144-.867-.253-1.3-.253-1.047 0-1.878.325-2.528 1.011s-.939 1.589-.939 2.744c0 1.119.325 2.022.939 2.636s1.444.939 2.492.939zM73.92 9.425c.217 0 .397 0 .578.036l.433.108v2.672a1.62 1.62 0 0 0-.614-.289c-.289-.072-.578-.145-.975-.145-.65 0-1.192.289-1.625.831s-.686 1.372-.686 2.528V20.8h-2.636V9.606h2.636v1.769h.036c.253-.614.614-1.083 1.083-1.444a3.18 3.18 0 0 1 1.769-.506zm1.156 5.958c0-1.842.542-3.322 1.553-4.405 1.047-1.083 2.492-1.625 4.333-1.625 1.733 0 3.105.506 4.081 1.553s1.481 2.456 1.481 4.225c0 1.806-.542 3.25-1.553 4.333-1.047 1.083-2.456 1.625-4.261 1.625-1.733 0-3.105-.506-4.117-1.517-1.011-1.047-1.517-2.455-1.517-4.189zm2.744-.108c0 1.155.253 2.058.794 2.672s1.3.939 2.275.939c.939 0 1.697-.289 2.203-.939.506-.614.758-1.517.758-2.744 0-1.192-.253-2.094-.758-2.745-.505-.614-1.264-.939-2.167-.939-.975 0-1.697.325-2.239.975-.614.686-.867 1.589-.867 2.781zm12.639-2.708c0 .361.108.686.361.903s.758.47 1.589.794c1.047.433 1.806.903 2.203 1.408.433.542.65 1.156.65 1.914 0 1.047-.397 1.878-1.228 2.528-.794.65-1.914.939-3.286.939-.469 0-.975-.072-1.553-.181s-1.047-.253-1.444-.433v-2.6c.469.325 1.011.614 1.553.794s1.047.289 1.517.289c.578 0 1.047-.072 1.3-.253.289-.18.433-.433.433-.831 0-.361-.144-.65-.433-.939-.289-.253-.867-.542-1.661-.867-.975-.397-1.661-.867-2.058-1.372s-.614-1.156-.614-1.95c0-1.011.397-1.842 1.192-2.492s1.842-.975 3.106-.975c.397 0 .831.036 1.3.144l1.228.325v2.564c-.361-.217-.758-.433-1.228-.614a3.82 3.82 0 0 0-1.372-.253c-.506 0-.903.108-1.156.289-.253.253-.397.506-.397.867zm5.922 2.817c0-1.842.542-3.322 1.553-4.405 1.047-1.083 2.492-1.625 4.334-1.625 1.733 0 3.105.506 4.08 1.553s1.481 2.456 1.481 4.225c0 1.806-.542 3.25-1.553 4.333-1.047 1.083-2.455 1.625-4.261 1.625-1.733 0-3.106-.506-4.117-1.517-.975-1.047-1.517-2.455-1.517-4.189zm2.745-.108c0 1.155.253 2.058.794 2.672s1.3.939 2.275.939c.938 0 1.697-.289 2.202-.939.506-.614.759-1.517.759-2.744 0-1.192-.253-2.094-.759-2.745-.505-.614-1.264-.939-2.166-.939-.975 0-1.698.325-2.239.975-.578.686-.867 1.589-.867 2.781zm17.478-3.503h-3.936V20.8h-2.672v-9.028h-1.878V9.606h1.878V8.053c0-1.156.397-2.131 1.155-2.889s1.733-1.119 2.925-1.119l.867.036c.253 0 .469.072.65.144V6.5a4.4 4.4 0 0 0-.47-.181c-.216-.072-.469-.108-.758-.108-.542 0-.975.181-1.264.506s-.433.867-.433 1.517v1.336h3.936V7.042l2.636-.794v3.322h2.672v2.167h-2.672v5.236c0 .686.144 1.156.361 1.444.253.289.65.433 1.192.433.144 0 .325-.036.541-.108s.398-.145.542-.253v2.167c-.18.108-.433.181-.83.253s-.759.108-1.156.108c-1.119 0-1.95-.289-2.492-.867s-.83-1.481-.83-2.672l.036-5.706z" fill="#737373"/><path d="M12.35 0H0V12.35H12.35V0Z" fill="#f25022"/><path d="M26 0H13.65v12.35H26V0z" fill="#7fba00"/><path d="M12.35 13.65H0V26H12.35V13.65Z" fill="#00a4ef"/><path d="M26 13.65H13.65V26H26V13.65z" fill="#ffb900"/></g><defs><clipPath id="A"><path fill="#fff" d="M0 0h121.911v26H0z"/></clipPath></defs></svg>