<svg viewBox="0 0 33 32" xmlns:xlink="http://www.w3.org/1999/xlink" xmlns="http://www.w3.org/2000/svg" xmlns:v="https://vecta.io/nano" width="33" height="32" fill="none"><g fill="#000"><path d="M24.694 12.877c1.121 0 2.476.324 2.733 1.481l-1.649.607c0-.002-.151-.632-1.085-.632-.473 0-.826.135-.826.383 0 .333.564.415.74.454.466.098 1.534.286 2.063.59.726.421.874.923.874 1.301 0 .428-.049.879-.537 1.345-.443.424-1.139.681-2.344.681-1.127 0-2.829-.38-3.176-1.485l1.643-.604s.253.676 1.535.676c.647 0 .892-.18.892-.422 0-.29-.495-.419-.95-.531-.794-.194-1.373-.26-2.065-.708-.395-.256-.629-.797-.629-1.175 0-1.186.954-1.959 2.78-1.959zm5.45 5.973h-1.979v-5.218l1.977-.726.002 5.944z"/><path fill-rule="evenodd" d="M7.043 13.014c1.687 0 2.292 1.016 2.292 1.829 0 .655-.059 1.443-1.441 2.072l-2.231.846v1.088H3.683v-5.834h3.359zm-1.381 1.434v1.824l.847-.336c.594-.248.752-.466.752-.874a.61.61 0 0 0-.61-.614h-.989z"/><path d="M14.987 14.447h-3.108v.756h2.485v1.435h-2.485v.773h3.164v1.437H9.9v-5.834l5.087-.002v1.434z"/><path d="M19.26 13.014c1.687 0 2.292 1.016 2.292 1.829 0 .655-.059 1.443-1.442 2.072l-2.231.846v1.088H15.9v-5.834h3.359zm-1.381 1.434v1.824l.847-.336c.596-.248.752-.466.752-.874a.61.61 0 0 0-.61-.614h-.989zM16.947 0c8.834 0 16 7.167 16 16s-7.167 16-16 16-16-7.167-16-16 7.167-16 16-16zm-.002.601c-2.022 0-4.025.398-5.893 1.171A15.39 15.39 0 0 0 6.056 5.11c-1.43 1.43-2.564 3.128-3.338 4.996A15.38 15.38 0 0 0 1.548 16a15.42 15.42 0 0 0 1.171 5.894 15.41 15.41 0 0 0 3.338 4.997 15.4 15.4 0 0 0 4.997 3.339c1.869.774 3.872 1.172 5.894 1.171a15.43 15.43 0 0 0 5.895-1.171c1.869-.774 3.567-1.908 4.997-3.339s2.564-3.129 3.338-4.998 1.171-3.872 1.17-5.895a15.41 15.41 0 0 0-1.172-5.893c-.774-1.868-1.908-3.566-3.338-4.996s-3.128-2.564-4.996-3.338S18.969.6 16.947.601h-.002z" fill-rule="evenodd"/></g><path d="M16.947 1.67a14.33 14.33 0 0 0-13.144 8.647c.051.018 2.847 1.007 5.669 1.007 4.409 0 9.696-1.801 15.392-1.801 2.884 0 5.019.714 5.236.79A14.33 14.33 0 0 0 16.947 1.67z" fill="#ff1400"/><path d="M16.955 30.333A14.33 14.33 0 0 0 30.1 21.687c-.051-.02-2.848-1.009-5.669-1.009-4.409 0-9.696 1.803-15.393 1.803-2.883 0-5.017-.714-5.237-.79a14.33 14.33 0 0 0 13.153 8.641z" fill="#0e0e96"/></svg>