<svg viewBox="0 0 67 32" xmlns:xlink="http://www.w3.org/1999/xlink" xmlns="http://www.w3.org/2000/svg" xmlns:v="https://vecta.io/nano" width="67" height="32" fill="none"><g fill-rule="evenodd"><path d="M50.516 0c8.836 0 16 7.163 16 16s-7.164 15.999-16 16c-6.62 0-12.301-4.021-14.735-9.754.196-.019.386-.049.57-.087a15.46 15.46 0 0 0 3.245 4.76c.528.528 1.094 1.018 1.694 1.465l10.08-16.409h-8.892l3.33-5.704h16.702a15.57 15.57 0 0 0-1.074-1.191C58.639 2.286 54.781.558 50.516.557S42.391 2.286 39.596 5.08a15.42 15.42 0 0 0-4.102 7.326c-.099-.005-.199-.008-.3-.008a6.26 6.26 0 0 0-.272.006C36.553 5.3 42.915 0 50.516 0zm-1.654 28.387h-7.568a15.37 15.37 0 0 0 9.222 3.055c4.265 0 8.124-1.728 10.919-4.523A15.39 15.39 0 0 0 65.958 16c0-3.687-1.291-7.07-3.446-9.725l-13.65 22.112z" fill="#fc0"/><path d="M35.193 12.399c2.877 0 4.776 1.97 4.776 4.946 0 2.962-1.899 4.931-4.776 4.931s-4.79-1.969-4.79-4.931c0-2.976 1.913-4.946 4.79-4.946zm0 2.006c-1.375 0-2.123 1.055-2.123 2.94 0 1.87.749 2.929 2.124 2.929 1.36 0 2.107-1.059 2.107-2.929 0-1.885-.746-2.94-2.107-2.94zm-32.33-1.794c2.225 0 3.146.241 3.926 1.006.524.524.793 1.219.793 2.04 0 1.233-.654 2.127-1.83 2.623l2.067 3.261 3.334-8.931h2.612l3.543 9.452h-2.72l-.609-1.87h-3.033l-.623 1.87H5.162l-1.97-3.429h-.698v3.429H0V12.61h2.863zm8.627 5.696h1.953l-.982-3.411-.971 3.411zm-8.995-1.559h.559c1.36 0 1.856-.312 1.857-1.148s-.411-1.091-1.772-1.091h-.643v2.239zm17.957-4.137c2.282 0 3.401.326 4.407 1.276.907.85 1.389 2.055 1.389 3.457 0 2.197-1.261 3.954-3.174 4.45-.709.184-1.488.269-2.622.269h-2.706v-9.452h2.706zm-.212 7.51h.751c1.119 0 1.662-.227 2.059-.794.34-.496.524-1.176.524-1.984 0-1.303-.453-2.134-1.233-2.46-.383-.156-.712-.227-1.35-.227h-.751v5.465z" fill="#003061"/></g><path d="M29.589 22.044h-2.494v-9.432h2.494v9.432z" fill="#003061"/></svg>