<svg viewBox="0 0 33 32" xmlns:xlink="http://www.w3.org/1999/xlink" xmlns="http://www.w3.org/2000/svg" xmlns:v="https://vecta.io/nano" width="33" height="32" fill="none"><path d="M18.415 6.965c-.136-.027-.815-.136-1.616-.136s-1.48.109-1.616.136c-.082.014-.109-.068-.054-.109l1.67-1.276 1.67 1.276c.054.041.027.122-.054.109zm-2.797 7.983s-.081.027-.109.109c.339.258.57.855 1.276.855s.937-.597 1.276-.855c-.027-.081-.109-.109-.109-.109s-.448.109-1.168.109-1.168-.109-1.168-.109zm1.168-.991c-.19 0-.244-.068-.367-.068s-.38.109-.434.19c0 .041.027.081.054.122.285.041.421.204.747.204s.462-.163.747-.204c.041-.041.054-.082.054-.122-.054-.095-.299-.19-.434-.19-.122-.014-.163.068-.367.068zm16.102 3.041l-.095 1.14c-1.819.299-2.471-1.317-4.344-1.249l.271 1.208c1.548 0 2.159 1.439 3.883 1.222l-.326 1.303c-1.358.136-1.833-1.208-3.408-1.181l.014.679-.014.38c1.344-.013 1.779 1.222 3.055 1.168l-.529 1.276c-.923-.054-1.236-1.222-2.62-1.127l-.163.896c1.208-.081 1.466 1.032 2.335 1.113l-.706 1.181c-.516-.272-.964-1.1-1.928-1.154l.258-.937c-.869 0-1.846-.339-2.675-1.086.271-1.534-2.104-3.082-2.104-4.209 0-1.208.611-1.887.611-3.53 0-1.222-.597-2.539-1.48-3.435-.177-.177-.353-.312-.557-.448.815 1.018 1.453 2.213 1.453 3.611 0 1.548-.72 2.362-.72 3.788s2.091 2.661 2.091 4.127c0 .584-.19 1.14-.787 2.254.937.937 2.159 1.439 2.946 1.439.258 0 .394-.081.489-.271l.217-.529c.842.027 1.235.801 1.697 1.113l-.815 1.005c-.312-.353-.733-.937-1.358-1.1l-.353.638c.53.149.896.679 1.181 1.032l-.95.91c-.204-.312-.53-.719-.883-.95l-.407.529c.312.204.57.584.747.883a14.64 14.64 0 0 1-1.181.869c-.204-1.643-2.43-2.756-1.833-4.657-.204.34-.434.76-.434 1.263 0 1.371 1.466 2.471 1.575 3.829l-.937.516c-.054-1.507-1.602-3.15-1.602-4.372 0-1.371 1.806-2.756 1.806-4.385s-2.077-2.756-2.077-4.182.883-2.24.883-4.073c0-1.344-.638-2.688-1.616-3.557-.177-.149-.339-.272-.557-.38.923 1.113 1.466 2.118 1.466 3.652 0 1.724-1.018 2.675-1.018 4.358s2.037 2.62 2.037 4.182-1.901 2.892-1.901 4.507c0 1.466 1.67 2.932 1.697 4.67l-1.113.434c.217-1.751-1.67-3.571-1.67-5.01 0-1.561 1.969-2.919 1.969-4.602s-1.996-2.471-1.996-4.209 1.235-2.702 1.235-4.616c0-1.493-.733-2.837-1.819-3.666-.027-.014-.041-.041-.068-.054-.095-.081-.19.014-.109.109.76.95 1.168 1.914 1.168 3.34 0 1.751-1.412 3.177-1.412 4.874 0 2.009 1.901 2.579 1.901 4.222s-2.037 2.96-2.037 4.711c0 1.616 1.928 3.421 1.588 5.281L19.691 32c.367-2.322-1.521-4.005-1.521-5.526 0-1.643 2.104-3.123 2.104-4.725 0-1.521-1.507-2.009-1.711-3.571a.36.36 0 0 0-.434-.326c-.312.054-.706.258-1.317.258-.625 0-1.005-.204-1.317-.258-.231-.041-.407.122-.434.326-.204 1.561-1.711 2.05-1.711 3.571 0 1.616 2.104 3.082 2.104 4.725 0 1.521-1.887 3.191-1.521 5.526l-1.168-.258c-.326-1.873 1.588-3.666 1.588-5.281 0-1.751-2.036-3.068-2.036-4.711s1.901-2.213 1.901-4.222c0-1.697-1.412-3.123-1.412-4.874 0-1.426.407-2.389 1.168-3.34.068-.095-.014-.176-.109-.109-.027.014-.041.041-.068.054-1.073.828-1.819 2.172-1.819 3.666 0 1.914 1.236 2.878 1.236 4.616s-1.996 2.525-1.996 4.209 1.969 3.041 1.969 4.602c0 1.439-1.887 3.245-1.67 5.01l-1.113-.434c.027-1.738 1.697-3.204 1.697-4.67 0-1.616-1.901-2.933-1.901-4.507s2.036-2.498 2.036-4.182-1.018-2.634-1.018-4.358c0-1.534.543-2.539 1.466-3.652a3.1 3.1 0 0 0-.557.38c-.977.869-1.616 2.227-1.616 3.557 0 1.833.883 2.648.883 4.073s-2.077 2.552-2.077 4.182 1.806 3 1.806 4.385c0 1.236-1.548 2.878-1.602 4.372l-.937-.516c.122-1.371 1.588-2.457 1.588-3.829 0-.502-.231-.923-.434-1.263.597 1.901-1.629 3.028-1.833 4.657l-1.181-.869c.176-.299.448-.679.747-.883l-.407-.529c-.367.217-.679.625-.882.95l-.95-.91c.285-.353.652-.896 1.181-1.032l-.353-.638c-.625.163-1.045.747-1.358 1.1l-.815-1.005c.475-.312.855-1.073 1.711-1.113l.217.529c.095.204.231.271.489.271.787 0 2.009-.516 2.946-1.439-.611-1.113-.787-1.67-.787-2.254 0-1.466 2.091-2.702 2.091-4.127s-.72-2.24-.72-3.788c0-1.398.625-2.593 1.453-3.611-.204.122-.38.271-.557.448-.896.896-1.48 2.227-1.48 3.435 0 1.643.611 2.308.611 3.53 0 1.127-2.376 2.675-2.104 4.209-.828.76-1.819 1.086-2.688 1.086l.258.937c-.978.054-1.426.882-1.928 1.154-.258-.38-.489-.774-.706-1.181.869-.095 1.127-1.208 2.335-1.113l-.163-.896c-1.398-.095-1.711 1.086-2.62 1.127l-.529-1.276c1.276.054 1.711-1.181 3.041-1.168v-.38l.014-.679c-1.575-.041-2.05 1.317-3.408 1.181l-.326-1.303c1.711.217 2.335-1.236 3.883-1.222.068-.407.163-.815.272-1.208-1.874-.081-2.525 1.548-4.345 1.249l-.109-1.14c2.118.231 2.919-1.507 4.847-1.29a10.13 10.13 0 0 1 .638-1.344c-2.417-.421-3.245 1.602-5.499 1.29C.915 6.965 8.042 0 16.786 0a16.12 16.12 0 0 1 16.115 15.667c-2.254.312-3.082-1.711-5.498-1.29.244.434.448.883.638 1.344 1.928-.231 2.715 1.521 4.847 1.276zM9.862 10.237c-1.181-.489-2.62-.367-3.856.421-.19-1.14-.815-2.159-1.697-2.77-.122-.081-.244 0-.244.136.19 2.417-1.222 4.507-2.96 6.354 1.792.543 3.313-1.765 5.621-.964.855-1.235 1.914-2.322 3.136-3.177zm6.924-1.453c-1.493 0-2.756.842-3.082 1.941-.027.082.014.136.109.095.272-.122.57-.176.91-.176.611 0 1.154.231 1.466.611.136.462.149 1.14-.014 1.521-.244-.054-.34-.244-.584-.244s-.434.177-.855.177-.462-.204-.733-.204c-.326 0-.38.326-.38.706 0 1.67 1.534 3.964 3.163 3.964s3.163-2.294 3.163-3.964c0-.38-.081-.692-.407-.733-.163.122-.326.231-.706.231-.421 0-.529-.177-.774-.177-.299 0-.271.624-.625.665-.231-.557-.244-1.29-.054-1.928.312-.394.855-.611 1.466-.611a2.22 2.22 0 0 1 .91.176c.095.041.136-.014.109-.095-.326-1.113-1.588-1.955-3.082-1.955zm2.39 2.389c-.367 0-.774.109-1.045.407-.027.082-.027.204.014.272.652-.217 1.222-.231 1.507.081.149-.136.19-.258.19-.394 0-.217-.231-.367-.665-.367zm-5.241.76c.312-.312.978-.299 1.656-.054.027-.339-.584-.72-1.195-.72-.448 0-.665.149-.665.367a.56.56 0 0 0 .204.407zm10.318-5.648c-1.181.081-2.213.489-3.041 1.168.353-1.005.801-1.874 1.371-2.715-1.507.163-2.756.706-3.679 1.656l-.719-1.887 1.588-1.412-2.132-.149-.855-1.982-.855 1.982-2.132.149 1.588 1.412-.719 1.887c-.923-.937-2.172-1.493-3.679-1.656.57.842 1.018 1.724 1.371 2.715-.828-.679-1.86-1.086-3.041-1.168.706.91 1.331 1.887 1.806 2.933.054.122.163.163.285.095 1.616-.801 3.435-1.263 5.376-1.263 1.928 0 3.747.448 5.376 1.263.122.068.231.027.285-.095.462-1.045 1.1-2.023 1.806-2.933zm2.58 7.128c2.322-.801 3.842 1.493 5.634.964-1.738-1.846-3.15-3.937-2.96-6.354.013-.136-.122-.217-.231-.136-.883.611-1.507 1.629-1.697 2.77-1.222-.787-2.661-.896-3.856-.421 1.222.855 2.267 1.941 3.109 3.177z" fill="#00643c"/></svg>