<svg xmlns:xlink="http://www.w3.org/1999/xlink" xmlns="http://www.w3.org/2000/svg" width="56" viewBox="0 0 56 56" fill="none" height="56" ><rect width="56" height="56" rx="14" fill="#5D5BD4"></rect><path fill-rule="evenodd" clip-rule="evenodd" d="M42 42V31.0176V26.2077C42 23.1796 40.7542 20.285 38.5551 18.2033C35.7036 15.5042 31.9264 14 28 14C20.268 14 14 20.268 14 28C14 35.732 20.268 42 28 42C30.5756 42 32.9888 41.3045 35.0619 40.091V42H42ZM35.0619 28C35.0619 31.9002 31.9002 35.0619 28 35.0619C24.0998 35.0619 20.9381 31.9002 20.9381 28C20.9381 24.0998 24.0998 20.938 28 20.938C31.9002 20.938 35.0619 24.0998 35.0619 28Z" fill="#FFFFFF"></path></svg>