<svg xmlns:xlink="http://www.w3.org/1999/xlink" xmlns="http://www.w3.org/2000/svg" width="93" height="93" viewBox="0 0 93 93" fill="none">
<rect x="0.928" y="0.928" width="90.944" height="90.944" rx="45.472" fill="white"/>
<rect x="0.928" y="0.928" width="90.944" height="90.944" rx="45.472" stroke="#EEEEEE" stroke-width="1.856"/>
<g clip-path="url(#clip0_16579_23219)">
<path d="M42.6561 24.6226L42.4212 24.7646C42.0476 24.9907 41.6956 25.2434 41.3671 25.5195L42.0446 25.0429H47.7954L48.8408 32.9591L43.6135 38.1864L38.3863 41.8198V46.0094C38.3863 48.9357 39.9157 51.6491 42.419 53.1644L47.922 56.4954L36.2954 63.2775H34.053L29.8735 60.7477C27.3702 59.2325 25.8408 56.519 25.8408 53.5927V39.5043C25.8408 36.5771 27.3711 33.8629 29.8758 32.348L42.4212 24.7595C42.499 24.7125 42.5773 24.6668 42.6561 24.6226Z" fill="url(#paint0_radial_16579_23219)"/>
<path d="M42.6561 24.6226L42.4212 24.7646C42.0476 24.9907 41.6956 25.2434 41.3671 25.5195L42.0446 25.0429H47.7954L48.8408 32.9591L43.6135 38.1864L38.3863 41.8198V46.0094C38.3863 48.9357 39.9157 51.6491 42.419 53.1644L47.922 56.4954L36.2954 63.2775H34.053L29.8735 60.7477C27.3702 59.2325 25.8408 56.519 25.8408 53.5927V39.5043C25.8408 36.5771 27.3711 33.8629 29.8758 32.348L42.4212 24.7595C42.499 24.7125 42.5773 24.6668 42.6561 24.6226Z" fill="url(#paint1_linear_16579_23219)"/>
<path d="M55.1138 41.3228V46.0067C55.1138 48.9329 53.5844 51.6464 51.0811 53.1617L38.5356 60.7555C35.9692 62.3089 32.7761 62.3649 30.1646 60.9237L42.4192 68.3415C45.0815 69.9531 48.4186 69.9531 51.0811 68.3415L63.6265 60.7476C66.1299 59.2323 67.6592 56.5189 67.6592 53.5926V50.2091L66.6137 48.6409L55.1138 41.3228Z" fill="url(#paint2_radial_16579_23219)"/>
<path d="M55.1138 41.3228V46.0067C55.1138 48.9329 53.5844 51.6464 51.0811 53.1617L38.5356 60.7555C35.9692 62.3089 32.7761 62.3649 30.1646 60.9237L42.4192 68.3415C45.0815 69.9531 48.4186 69.9531 51.0811 68.3415L63.6265 60.7476C66.1299 59.2323 67.6592 56.5189 67.6592 53.5926V50.2091L66.6137 48.6409L55.1138 41.3228Z" fill="url(#paint3_linear_16579_23219)"/>
<path d="M63.624 32.3478L51.0786 24.7593C48.4997 23.1994 45.2884 23.1511 42.6704 24.6143L42.4212 24.7651C39.9166 26.2801 38.3862 28.9942 38.3862 31.9214V41.8364L42.4212 39.3957C45.0825 37.786 48.4173 37.786 51.0786 39.3957L63.624 46.9841C66.0503 48.4518 67.5624 51.0448 67.6545 53.8666C67.6575 53.7754 67.659 53.6841 67.659 53.5926V39.5041C67.659 36.5769 66.1286 33.8627 63.624 32.3478Z" fill="url(#paint4_radial_16579_23219)"/>
<path d="M63.624 32.3478L51.0786 24.7593C48.4997 23.1994 45.2884 23.1511 42.6704 24.6143L42.4212 24.7651C39.9166 26.2801 38.3862 28.9942 38.3862 31.9214V41.8364L42.4212 39.3957C45.0825 37.786 48.4173 37.786 51.0786 39.3957L63.624 46.9841C66.0503 48.4518 67.5624 51.0448 67.6545 53.8666C67.6575 53.7754 67.659 53.6841 67.659 53.5926V39.5041C67.659 36.5769 66.1286 33.8627 63.624 32.3478Z" fill="url(#paint5_linear_16579_23219)"/>
</g>
<defs>
<radialGradient id="paint0_radial_16579_23219" cx="0" cy="0" r="1" gradientUnits="userSpaceOnUse" gradientTransform="translate(39.8694 32.581) rotate(110.528) scale(34.8823 60.8419)">
<stop offset="0.06441" stop-color="#AE7FE2"/>
<stop offset="1" stop-color="#0078D4"/>
</radialGradient>
<linearGradient id="paint1_linear_16579_23219" x1="39.9669" y1="61.0489" x2="34.9899" y2="52.4409" gradientUnits="userSpaceOnUse">
<stop stop-color="#114A8B"/>
<stop offset="1" stop-color="#0078D4" stop-opacity="0"/>
</linearGradient>
<radialGradient id="paint2_radial_16579_23219" cx="0" cy="0" r="1" gradientUnits="userSpaceOnUse" gradientTransform="translate(32.5632 59.4625) rotate(-8.36717) scale(32.4617 21.4431)">
<stop offset="0.133928" stop-color="#D59DFF"/>
<stop offset="1" stop-color="#5E438F"/>
</radialGradient>
<linearGradient id="paint3_linear_16579_23219" x1="63.8502" y1="47.9894" x2="58.517" y2="55.6367" gradientUnits="userSpaceOnUse">
<stop stop-color="#493474"/>
<stop offset="1" stop-color="#8C66BA" stop-opacity="0"/>
</linearGradient>
<radialGradient id="paint4_radial_16579_23219" cx="0" cy="0" r="1" gradientUnits="userSpaceOnUse" gradientTransform="translate(64.5803 49.1678) rotate(-165.772) scale(26.0557 43.8623)">
<stop offset="0.0584996" stop-color="#50E6FF"/>
<stop offset="1" stop-color="#436DCD"/>
</radialGradient>
<linearGradient id="paint5_linear_16579_23219" x1="39.4064" y1="24.6545" x2="47.2588" y2="24.6545" gradientUnits="userSpaceOnUse">
<stop stop-color="#2D3F80"/>
<stop offset="1" stop-color="#436DCD" stop-opacity="0"/>
</linearGradient>
<clipPath id="clip0_16579_23219">
<rect width="41.8182" height="46" fill="white" transform="translate(25.8408 23.55)"/>
</clipPath>
</defs>
</svg>