<svg xmlns:xlink="http://www.w3.org/1999/xlink" xmlns="http://www.w3.org/2000/svg" width="65" viewBox="0 0 65 64" fill="none" height="64" ><path d="M24.4998 30.6669L29.8332 36.0002L41.8332 24.0002M53.8332 32.0002C53.8332 45.0894 39.5559 54.6093 34.3611 57.6399C33.7708 57.9843 33.4756 58.1565 33.059 58.2459C32.7357 58.3152 32.264 58.3152 31.9407 58.2459C31.5241 58.1565 31.2289 57.9843 30.6385 57.6399C25.4437 54.6093 11.1665 45.0894 11.1665 32.0002V19.2472C11.1665 17.1151 11.1665 16.0491 11.5152 15.1328C11.8232 14.3233 12.3238 13.601 12.9736 13.0283C13.7092 12.3801 14.7073 12.0058 16.7036 11.2572L31.0017 5.89536C31.5561 5.68746 31.8333 5.58351 32.1185 5.5423C32.3714 5.50576 32.6283 5.50576 32.8812 5.5423C33.1664 5.58351 33.4436 5.68746 33.998 5.89536L48.2961 11.2572C50.2924 12.0058 51.2905 12.3801 52.0261 13.0283C52.6759 13.601 53.1764 14.3233 53.4845 15.1328C53.8332 16.0491 53.8332 17.1151 53.8332 19.2472V32.0002Z" stroke="#17B26A" stroke-width="3px" stroke-linecap="round" stroke-linejoin="round" fill="none"></path></svg>