<svg xmlns:xlink="http://www.w3.org/1999/xlink" xmlns="http://www.w3.org/2000/svg" width="20" viewBox="0 0 20 20" fill="none" height="20" ><path d="M11.6654 9.16663H6.66536M8.33203 12.5H6.66536M13.332 5.83329H6.66536M16.6654 8.74996V5.66663C16.6654 4.26649 16.6654 3.56643 16.3929 3.03165C16.1532 2.56124 15.7707 2.17879 15.3003 1.93911C14.7656 1.66663 14.0655 1.66663 12.6654 1.66663H7.33203C5.9319 1.66663 5.23183 1.66663 4.69705 1.93911C4.22665 2.17879 3.8442 2.56124 3.60451 3.03165C3.33203 3.56643 3.33203 4.26649 3.33203 5.66663V14.3333C3.33203 15.7334 3.33203 16.4335 3.60451 16.9683C3.8442 17.4387 4.22665 17.8211 4.69705 18.0608C5.23183 18.3333 5.9319 18.3333 7.33203 18.3333H9.58203M18.332 18.3333L17.082 17.0833M17.9154 15C17.9154 16.6108 16.6095 17.9166 14.9987 17.9166C13.3879 17.9166 12.082 16.6108 12.082 15C12.082 13.3891 13.3879 12.0833 14.9987 12.0833C16.6095 12.0833 17.9154 13.3891 17.9154 15Z" stroke="#5D5BD4" stroke-width="1.5px" stroke-linecap="round" stroke-linejoin="round" fill="none"></path></svg>