<svg xmlns:xlink="http://www.w3.org/1999/xlink" xmlns="http://www.w3.org/2000/svg" width="89" viewBox="0 0 89 16" fill="none" class="stars-5-svg hide-portrait" height="16" ><g clip-path="url(#clip0_13936_5706)" fill="none"><g clip-path="url(#clip1_13936_5706)" fill="none"><path d="M7.92462 1.28796C8.06126 0.959447 8.52664 0.959449 8.66327 1.28797L10.3161 5.26195C10.3738 5.40044 10.504 5.49507 10.6535 5.50706L14.9438 5.85101C15.2984 5.87944 15.4422 6.32204 15.172 6.55351L11.9033 9.35351C11.7894 9.45109 11.7396 9.6042 11.7744 9.75011L12.7731 13.9367C12.8556 14.2828 12.4791 14.5563 12.1755 14.3708L8.50245 12.1273C8.37444 12.0492 8.21345 12.0492 8.08544 12.1273L4.41239 14.3708C4.10875 14.5563 3.73225 14.2828 3.81481 13.9367L4.81345 9.75011C4.84826 9.6042 4.79851 9.45109 4.68459 9.35351L1.41587 6.55351C1.14566 6.32204 1.28947 5.87944 1.64413 5.851L5.93438 5.50706C6.0839 5.49507 6.21414 5.40044 6.27175 5.26195L7.92462 1.28796Z" fill="#F5F5F5"></path><g clip-path="url(#clip2_13936_5706)" fill="none"><path d="M7.92462 1.28796C8.06126 0.959447 8.52664 0.959449 8.66327 1.28797L10.3161 5.26195C10.3738 5.40044 10.504 5.49507 10.6535 5.50706L14.9438 5.85101C15.2984 5.87944 15.4422 6.32204 15.172 6.55351L11.9033 9.35351C11.7894 9.45109 11.7396 9.6042 11.7744 9.75011L12.7731 13.9367C12.8556 14.2828 12.4791 14.5563 12.1755 14.3708L8.50245 12.1273C8.37444 12.0492 8.21345 12.0492 8.08544 12.1273L4.41239 14.3708C4.10875 14.5563 3.73225 14.2828 3.81481 13.9367L4.81345 9.75011C4.84826 9.6042 4.79851 9.45109 4.68459 9.35351L1.41587 6.55351C1.14566 6.32204 1.28947 5.87944 1.64413 5.851L5.93438 5.50706C6.0839 5.49507 6.21414 5.40044 6.27175 5.26195L7.92462 1.28796Z" fill="#FDB022"></path></g></g><g clip-path="url(#clip3_13936_5706)" fill="none"><path d="M25.9246 1.28796C26.0613 0.959447 26.5266 0.959449 26.6633 1.28797L28.3161 5.26195C28.3738 5.40044 28.504 5.49507 28.6535 5.50706L32.9438 5.85101C33.2984 5.87944 33.4422 6.32204 33.172 6.55351L29.9033 9.35351C29.7894 9.45109 29.7396 9.6042 29.7744 9.75011L30.7731 13.9367C30.8556 14.2828 30.4791 14.5563 30.1755 14.3708L26.5024 12.1273C26.3744 12.0492 26.2135 12.0492 26.0854 12.1273L22.4124 14.3708C22.1088 14.5563 21.7323 14.2828 21.8148 13.9367L22.8135 9.75011C22.8483 9.6042 22.7985 9.45109 22.6846 9.35351L19.4159 6.55351C19.1457 6.32204 19.2895 5.87944 19.6441 5.851L23.9344 5.50706C24.0839 5.49507 24.2141 5.40044 24.2717 5.26195L25.9246 1.28796Z" fill="#F5F5F5"></path><g clip-path="url(#clip4_13936_5706)" fill="none"><path d="M25.9246 1.28796C26.0613 0.959447 26.5266 0.959449 26.6633 1.28797L28.3161 5.26195C28.3738 5.40044 28.504 5.49507 28.6535 5.50706L32.9438 5.85101C33.2984 5.87944 33.4422 6.32204 33.172 6.55351L29.9033 9.35351C29.7894 9.45109 29.7396 9.6042 29.7744 9.75011L30.7731 13.9367C30.8556 14.2828 30.4791 14.5563 30.1755 14.3708L26.5024 12.1273C26.3744 12.0492 26.2135 12.0492 26.0854 12.1273L22.4124 14.3708C22.1088 14.5563 21.7323 14.2828 21.8148 13.9367L22.8135 9.75011C22.8483 9.6042 22.7985 9.45109 22.6846 9.35351L19.4159 6.55351C19.1457 6.32204 19.2895 5.87944 19.6441 5.851L23.9344 5.50706C24.0839 5.49507 24.2141 5.40044 24.2717 5.26195L25.9246 1.28796Z" fill="#FDB022"></path></g></g><g clip-path="url(#clip5_13936_5706)" fill="none"><path d="M43.9246 1.28796C44.0613 0.959447 44.5266 0.959449 44.6633 1.28797L46.3161 5.26195C46.3738 5.40044 46.504 5.49507 46.6535 5.50706L50.9438 5.85101C51.2984 5.87944 51.4422 6.32204 51.172 6.55351L47.9033 9.35351C47.7894 9.45109 47.7396 9.6042 47.7744 9.75011L48.7731 13.9367C48.8556 14.2828 48.4791 14.5563 48.1755 14.3708L44.5024 12.1273C44.3744 12.0492 44.2135 12.0492 44.0854 12.1273L40.4124 14.3708C40.1088 14.5563 39.7323 14.2828 39.8148 13.9367L40.8135 9.75011C40.8483 9.6042 40.7985 9.45109 40.6846 9.35351L37.4159 6.55351C37.1457 6.32204 37.2895 5.87944 37.6441 5.851L41.9344 5.50706C42.0839 5.49507 42.2141 5.40044 42.2717 5.26195L43.9246 1.28796Z" fill="#F5F5F5"></path><g clip-path="url(#clip6_13936_5706)" fill="none"><path d="M43.9246 1.28796C44.0613 0.959447 44.5266 0.959449 44.6633 1.28797L46.3161 5.26195C46.3738 5.40044 46.504 5.49507 46.6535 5.50706L50.9438 5.85101C51.2984 5.87944 51.4422 6.32204 51.172 6.55351L47.9033 9.35351C47.7894 9.45109 47.7396 9.6042 47.7744 9.75011L48.7731 13.9367C48.8556 14.2828 48.4791 14.5563 48.1755 14.3708L44.5024 12.1273C44.3744 12.0492 44.2135 12.0492 44.0854 12.1273L40.4124 14.3708C40.1088 14.5563 39.7323 14.2828 39.8148 13.9367L40.8135 9.75011C40.8483 9.6042 40.7985 9.45109 40.6846 9.35351L37.4159 6.55351C37.1457 6.32204 37.2895 5.87944 37.6441 5.851L41.9344 5.50706C42.0839 5.49507 42.2141 5.40044 42.2717 5.26195L43.9246 1.28796Z" fill="#FDB022"></path></g></g><g clip-path="url(#clip7_13936_5706)" fill="none"><path d="M61.9246 1.28796C62.0613 0.959447 62.5266 0.959449 62.6633 1.28797L64.3161 5.26195C64.3738 5.40044 64.504 5.49507 64.6535 5.50706L68.9438 5.85101C69.2984 5.87944 69.4422 6.32204 69.172 6.55351L65.9033 9.35351C65.7894 9.45109 65.7396 9.6042 65.7744 9.75011L66.7731 13.9367C66.8556 14.2828 66.4791 14.5563 66.1755 14.3708L62.5024 12.1273C62.3744 12.0492 62.2135 12.0492 62.0854 12.1273L58.4124 14.3708C58.1088 14.5563 57.7323 14.2828 57.8148 13.9367L58.8135 9.75011C58.8483 9.6042 58.7985 9.45109 58.6846 9.35351L55.4159 6.55351C55.1457 6.32204 55.2895 5.87944 55.6441 5.851L59.9344 5.50706C60.0839 5.49507 60.2141 5.40044 60.2717 5.26195L61.9246 1.28796Z" fill="#F5F5F5"></path><g clip-path="url(#clip8_13936_5706)" fill="none"><path d="M61.9246 1.28796C62.0613 0.959447 62.5266 0.959449 62.6633 1.28797L64.3161 5.26195C64.3738 5.40044 64.504 5.49507 64.6535 5.50706L68.9438 5.85101C69.2984 5.87944 69.4422 6.32204 69.172 6.55351L65.9033 9.35351C65.7894 9.45109 65.7396 9.6042 65.7744 9.75011L66.7731 13.9367C66.8556 14.2828 66.4791 14.5563 66.1755 14.3708L62.5024 12.1273C62.3744 12.0492 62.2135 12.0492 62.0854 12.1273L58.4124 14.3708C58.1088 14.5563 57.7323 14.2828 57.8148 13.9367L58.8135 9.75011C58.8483 9.6042 58.7985 9.45109 58.6846 9.35351L55.4159 6.55351C55.1457 6.32204 55.2895 5.87944 55.6441 5.851L59.9344 5.50706C60.0839 5.49507 60.2141 5.40044 60.2717 5.26195L61.9246 1.28796Z" fill="#FDB022"></path></g></g><g clip-path="url(#clip9_13936_5706)" fill="none"><path d="M79.9246 1.28796C80.0613 0.959447 80.5266 0.959449 80.6633 1.28797L82.3161 5.26195C82.3738 5.40044 82.504 5.49507 82.6535 5.50706L86.9438 5.85101C87.2984 5.87944 87.4422 6.32204 87.172 6.55351L83.9033 9.35351C83.7894 9.45109 83.7396 9.6042 83.7744 9.75011L84.7731 13.9367C84.8556 14.2828 84.4791 14.5563 84.1755 14.3708L80.5024 12.1273C80.3744 12.0492 80.2135 12.0492 80.0854 12.1273L76.4124 14.3708C76.1088 14.5563 75.7323 14.2828 75.8148 13.9367L76.8135 9.75011C76.8483 9.6042 76.7985 9.45109 76.6846 9.35351L73.4159 6.55351C73.1457 6.32204 73.2895 5.87944 73.6441 5.851L77.9344 5.50706C78.0839 5.49507 78.2141 5.40044 78.2717 5.26195L79.9246 1.28796Z" fill="#F5F5F5"></path><g clip-path="url(#clip10_13936_5706)" fill="none"><path d="M79.9246 1.28796C80.0613 0.959447 80.5266 0.959449 80.6633 1.28797L82.3161 5.26195C82.3738 5.40044 82.504 5.49507 82.6535 5.50706L86.9438 5.85101C87.2984 5.87944 87.4422 6.32204 87.172 6.55351L83.9033 9.35351C83.7894 9.45109 83.7396 9.6042 83.7744 9.75011L84.7731 13.9367C84.8556 14.2828 84.4791 14.5563 84.1755 14.3708L80.5024 12.1273C80.3744 12.0492 80.2135 12.0492 80.0854 12.1273L76.4124 14.3708C76.1088 14.5563 75.7323 14.2828 75.8148 13.9367L76.8135 9.75011C76.8483 9.6042 76.7985 9.45109 76.6846 9.35351L73.4159 6.55351C73.1457 6.32204 73.2895 5.87944 73.6441 5.851L77.9344 5.50706C78.0839 5.49507 78.2141 5.40044 78.2717 5.26195L79.9246 1.28796Z" fill="#FDB022"></path></g></g></g></svg>