<svg xmlns:xlink="http://www.w3.org/1999/xlink" xmlns="http://www.w3.org/2000/svg" width="20" viewBox="0 0 16 16" fill="none" height="20" ><path d="M14.0001 7.66667C14.0001 10.7963 11.463 13.3333 8.33341 13.3333C7.61556 13.3333 6.92888 13.1999 6.29685 12.9564C6.18129 12.9118 6.12351 12.8896 6.07756 12.879C6.03237 12.8686 5.99966 12.8642 5.95332 12.8624C5.9062 12.8606 5.85451 12.866 5.75112 12.8767L2.3371 13.2296C2.01161 13.2632 1.84886 13.2801 1.75286 13.2215C1.66924 13.1705 1.61229 13.0853 1.59713 12.9885C1.57972 12.8774 1.65749 12.7335 1.81303 12.4456L2.90347 10.4272C2.99327 10.261 3.03817 10.1779 3.05851 10.098C3.0786 10.019 3.08345 9.96213 3.07703 9.88095C3.07052 9.79875 3.03446 9.69175 2.96232 9.47774C2.77064 8.90906 2.66674 8.3 2.66674 7.66667C2.66674 4.53705 5.2038 2 8.33341 2C11.463 2 14.0001 4.53705 14.0001 7.66667Z" stroke="#4B49AB" stroke-width="1.5px" stroke-linecap="round" stroke-linejoin="round" fill="none"></path></svg>