<svg xmlns:xlink="http://www.w3.org/1999/xlink" xmlns="http://www.w3.org/2000/svg" width="24" viewBox="0 0 21 20" fill="none" height="23" ><path d="M18.4167 14.9997L12.881 9.99967M8.11907 9.99967L2.58338 14.9997M2.16669 5.83301L8.97079 10.5959C9.52176 10.9816 9.79725 11.1744 10.0969 11.2491C10.3616 11.3151 10.6384 11.3151 10.9031 11.2491C11.2028 11.1744 11.4783 10.9816 12.0293 10.5959L18.8334 5.83301M6.16669 16.6663H14.8334C16.2335 16.6663 16.9336 16.6663 17.4683 16.3939C17.9387 16.1542 18.3212 15.7717 18.5609 15.3013C18.8334 14.7665 18.8334 14.0665 18.8334 12.6663V7.33301C18.8334 5.93288 18.8334 5.23281 18.5609 4.69803C18.3212 4.22763 17.9387 3.84517 17.4683 3.60549C16.9336 3.33301 16.2335 3.33301 14.8334 3.33301H6.16669C4.76656 3.33301 4.06649 3.33301 3.53171 3.60549C3.06131 3.84517 2.67885 4.22763 2.43917 4.69803C2.16669 5.23281 2.16669 5.93288 2.16669 7.33301V12.6663C2.16669 14.0665 2.16669 14.7665 2.43917 15.3013C2.67885 15.7717 3.06131 16.1542 3.53171 16.3939C4.06649 16.6663 4.76656 16.6663 6.16669 16.6663Z" stroke="#5D5BD4" stroke-width="1.66667px" stroke-linecap="round" stroke-linejoin="round" fill="none"></path></svg>