<svg xmlns:xlink="http://www.w3.org/1999/xlink" xmlns="http://www.w3.org/2000/svg" width="20" viewBox="0 0 16 16" fill="none" height="20" ><path d="M7.53402 14.4099C7.68162 14.496 7.75541 14.5391 7.85956 14.5614C7.94039 14.5787 8.05831 14.5787 8.13914 14.5614C8.24328 14.5391 8.31708 14.496 8.46468 14.4099C9.76338 13.6523 13.3327 11.2723 13.3327 8V4.81173C13.3327 4.27872 13.3327 4.01222 13.2455 3.78313C13.1685 3.58076 13.0434 3.40018 12.8809 3.25702C12.697 3.09495 12.4475 3.00138 11.9484 2.81423L8.37388 1.47378C8.23528 1.4218 8.16599 1.39582 8.09469 1.38552C8.03146 1.37638 7.96724 1.37638 7.904 1.38552C7.83271 1.39582 7.76341 1.4218 7.62482 1.47378L4.05029 2.81423C3.55121 3.00138 3.30168 3.09495 3.11779 3.25702C2.95534 3.40018 2.8302 3.58076 2.75319 3.78313C2.66602 4.01222 2.66602 4.27872 2.66602 4.81173V8C2.66602 11.2723 6.23532 13.6523 7.53402 14.4099Z" stroke="#4B49AB" stroke-width="1.5px" stroke-linecap="round" stroke-linejoin="round" fill="none"></path></svg>