<svg xmlns:xlink="http://www.w3.org/1999/xlink" xmlns="http://www.w3.org/2000/svg" width="24" viewBox="0 0 16 16" fill="none" height="24" ><path d="M5.99935 7.66666L7.33268 9L10.3327 6M13.3327 8C13.3327 11.2723 9.76338 13.6523 8.46468 14.4099C8.31708 14.496 8.24328 14.5391 8.13914 14.5614C8.05831 14.5787 7.94039 14.5787 7.85956 14.5614C7.75541 14.5391 7.68162 14.496 7.53402 14.4099C6.23532 13.6523 2.66602 11.2723 2.66602 8V4.81173C2.66602 4.27872 2.66602 4.01222 2.75319 3.78313C2.8302 3.58076 2.95534 3.40018 3.11779 3.25702C3.30168 3.09495 3.55121 3.00138 4.05029 2.81423L7.62482 1.47378C7.76341 1.4218 7.83271 1.39582 7.904 1.38552C7.96724 1.37638 8.03146 1.37638 8.09469 1.38552C8.16599 1.39582 8.23528 1.4218 8.37388 1.47378L11.9484 2.81423C12.4475 3.00138 12.697 3.09495 12.8809 3.25702C13.0434 3.40018 13.1685 3.58076 13.2455 3.78313C13.3327 4.01222 13.3327 4.27872 13.3327 4.81173V8Z" stroke="#5D5BD4" stroke-width="1.5px" stroke-linecap="round" stroke-linejoin="round" fill="none"></path></svg>