<svg xmlns:xlink="http://www.w3.org/1999/xlink" xmlns="http://www.w3.org/2000/svg" width="24" viewBox="0 0 24 24" fill="none" class="support_card_person_logo" height="24" ><rect width="24" height="24" rx="12" fill="#5D5BD4"></rect><path fill-rule="evenodd" clip-rule="evenodd" d="M16.5792 16.5792V12.822V11.1764C16.5792 10.1405 16.153 9.15017 15.4007 8.43803C14.4251 7.51461 13.1329 7 11.7896 7C9.14438 7 7 9.14438 7 11.7896C7 14.4348 9.14438 16.5792 11.7896 16.5792C12.6708 16.5792 13.4963 16.3413 14.2056 15.9261V16.5792H16.5792ZM14.2056 11.7896C14.2056 13.1239 13.1239 14.2056 11.7896 14.2056C10.4553 14.2056 9.37361 13.1239 9.37361 11.7896C9.37361 10.4553 10.4553 9.37361 11.7896 9.37361C13.1239 9.37361 14.2056 10.4553 14.2056 11.7896Z" fill="#FFFFFF"></path></svg>