<svg xmlns:xlink="http://www.w3.org/1999/xlink" xmlns="http://www.w3.org/2000/svg" width="20" viewBox="0 0 20 20" fill="none" height="20" ><path d="M16.6654 15.8333V13.3333H5.83203C4.45132 13.3333 3.33203 14.4526 3.33203 15.8333M7.33203 18.3333H13.9987C14.9321 18.3333 15.3988 18.3333 15.7553 18.1516C16.069 17.9918 16.3239 17.7369 16.4837 17.4233C16.6654 17.0668 16.6654 16.6 16.6654 15.6666V4.33329C16.6654 3.39987 16.6654 2.93316 16.4837 2.57664C16.3239 2.26304 16.069 2.00807 15.7553 1.84828C15.3988 1.66663 14.9321 1.66663 13.9987 1.66663H7.33203C5.9319 1.66663 5.23183 1.66663 4.69705 1.93911C4.22665 2.17879 3.8442 2.56124 3.60451 3.03165C3.33203 3.56643 3.33203 4.26649 3.33203 5.66663V14.3333C3.33203 15.7334 3.33203 16.4335 3.60451 16.9683C3.8442 17.4387 4.22665 17.8211 4.69705 18.0608C5.23183 18.3333 5.9319 18.3333 7.33203 18.3333Z" stroke="#5D5BD4" stroke-width="1.5px" stroke-linecap="round" stroke-linejoin="round" fill="none"></path></svg>