<svg xmlns:xlink="http://www.w3.org/1999/xlink" xmlns="http://www.w3.org/2000/svg" width="20" viewBox="0 0 16 16" fill="none" height="20" ><path d="M6.26369 12.914L6.65332 13.7903C6.76914 14.0511 6.95817 14.2728 7.19747 14.4283C7.43677 14.5839 7.71606 14.6666 8.00147 14.6666C8.28687 14.6666 8.56616 14.5839 8.80546 14.4283C9.04476 14.2728 9.23379 14.0511 9.34961 13.7903L9.73924 12.914C9.87794 12.6031 10.1112 12.3438 10.4059 12.1733C10.7024 12.0022 11.0455 11.9294 11.3859 11.9651L12.3392 12.0666C12.623 12.0966 12.9094 12.0436 13.1637 11.9141C13.418 11.7846 13.6292 11.5841 13.7718 11.337C13.9146 11.0899 13.9826 10.8068 13.9677 10.5218C13.9527 10.2369 13.8553 9.96245 13.6874 9.73177L13.1229 8.95622C12.922 8.67801 12.8146 8.34313 12.8163 7.99992C12.8162 7.65764 12.9246 7.32415 13.1259 7.04733L13.6904 6.27177C13.8583 6.04109 13.9556 5.76663 13.9706 5.4817C13.9856 5.19677 13.9176 4.91361 13.7748 4.66659C13.6322 4.41941 13.4209 4.21891 13.1667 4.0894C12.9124 3.9599 12.626 3.90694 12.3422 3.93696L11.3889 4.03844C11.0484 4.07419 10.7054 4.00133 10.4089 3.83029C10.1136 3.65875 9.88025 3.39816 9.74221 3.08584L9.34961 2.20955C9.23379 1.9487 9.04476 1.72706 8.80546 1.57152C8.56616 1.41597 8.28687 1.33321 8.00147 1.33325C7.71606 1.33321 7.43677 1.41597 7.19747 1.57152C6.95817 1.72706 6.76914 1.9487 6.65332 2.20955L6.26369 3.08584C6.12564 3.39816 5.89227 3.65875 5.59702 3.83029C5.3005 4.00133 4.95747 4.07419 4.61702 4.03844L3.66072 3.93696C3.37694 3.90694 3.09055 3.9599 2.83627 4.0894C2.58198 4.21891 2.37073 4.41941 2.22813 4.66659C2.08535 4.91361 2.01732 5.19677 2.03231 5.4817C2.0473 5.76663 2.14466 6.04109 2.31258 6.27177L2.87702 7.04733C3.07831 7.32415 3.18671 7.65764 3.18665 7.99992C3.18671 8.34219 3.07831 8.67569 2.87702 8.95251L2.31258 9.72807C2.14466 9.95875 2.0473 10.2332 2.03231 10.5181C2.01732 10.8031 2.08535 11.0862 2.22813 11.3333C2.37088 11.5803 2.58215 11.7807 2.8364 11.9102C3.09064 12.0397 3.37697 12.0927 3.66072 12.0629L4.61406 11.9614C4.9545 11.9256 5.29753 11.9985 5.59406 12.1695C5.89041 12.3406 6.12486 12.6012 6.26369 12.914Z" stroke="#4B49AB" stroke-width="1.25px" stroke-linecap="round" stroke-linejoin="round" fill="none"></path><path d="M8.00027 9.99992C9.10484 9.99992 10.0003 9.10449 10.0003 7.99992C10.0003 6.89535 9.10484 5.99992 8.00027 5.99992C6.8957 5.99992 6.00027 6.89535 6.00027 7.99992C6.00027 9.10449 6.8957 9.99992 8.00027 9.99992Z" stroke="#4B49AB" stroke-width="1.25px" stroke-linecap="round" stroke-linejoin="round" fill="none"></path></svg>