<svg xmlns:xlink="http://www.w3.org/1999/xlink" xmlns="http://www.w3.org/2000/svg" width="24" viewBox="0 0 24 24" fill="none" height="24" ><path d="M21 4.99951C21 6.65637 16.9706 7.99951 12 7.99951C7.02944 7.99951 3 6.65637 3 4.99951M21 4.99951C21 3.34266 16.9706 1.99951 12 1.99951C7.02944 1.99951 3 3.34266 3 4.99951M21 4.99951V18.9995C21 20.6595 17 21.9995 12 21.9995C7 21.9995 3 20.6595 3 18.9995V4.99951M21 9.71973C21 11.3797 17 12.7197 12 12.7197C7 12.7197 3 11.3797 3 9.71973M21 14.4395C21 16.0995 17 17.4395 12 17.4395C7 17.4395 3 16.0995 3 14.4395" stroke="#5D5BD4" stroke-width="1.63636px" stroke-linecap="round" stroke-linejoin="round" fill="none"></path></svg>