<svg xmlns:xlink="http://www.w3.org/1999/xlink" xmlns="http://www.w3.org/2000/svg" width="24" viewBox="0 0 24 24" fill="none" height="24" ><path d="M9.13626 9.1358L4.92893 4.92847M4.92893 19.0706L9.16797 14.8316M14.8611 14.8633L19.0684 19.0706M19.0684 4.92847L14.8287 9.16813M22 11.9995C22 17.5224 17.5228 21.9995 12 21.9995C6.47715 21.9995 2 17.5224 2 11.9995C2 6.47666 6.47715 1.99951 12 1.99951C17.5228 1.99951 22 6.47666 22 11.9995ZM16 11.9995C16 14.2087 14.2091 15.9995 12 15.9995C9.79086 15.9995 8 14.2087 8 11.9995C8 9.79037 9.79086 7.99951 12 7.99951C14.2091 7.99951 16 9.79037 16 11.9995Z" stroke="#5D5BD4" stroke-width="1.63636px" stroke-linecap="round" stroke-linejoin="round" fill="none"></path></svg>