<svg xmlns:xlink="http://www.w3.org/1999/xlink" xmlns="http://www.w3.org/2000/svg" width="93" height="93" viewBox="0 0 93 93" fill="none">
<rect x="0.928" y="0.928" width="90.944" height="90.944" rx="45.472" fill="white"/>
<rect x="0.928" y="0.928" width="90.944" height="90.944" rx="45.472" stroke="#EEEEEE" stroke-width="1.856"/>
<g clip-path="url(#clip0_16579_23229)">
<g clip-path="url(#clip1_16579_23229)">
<path d="M56.3521 28.9619L28.5627 46.4047L26.1729 42.6712V39.4541C26.1729 38.2828 26.7717 37.1911 27.764 36.5535L43.918 26.1738C46.3791 24.5924 49.5493 24.5921 52.0106 26.1732L56.3521 28.9619Z" fill="url(#paint0_linear_16579_23229)"/>
<path d="M51.7621 26.0205C51.8457 26.0697 51.9286 26.1207 52.0107 26.1734L64.6177 34.2714L33.3588 53.8921L28.562 46.3985L51.5031 31.971C53.6761 30.6044 53.7713 27.5302 51.7621 26.0205Z" fill="url(#paint1_linear_16579_23229)"/>
<path d="M51.7621 26.0205C51.8457 26.0697 51.9286 26.1207 52.0107 26.1734L64.6177 34.2714L33.3588 53.8921L28.562 46.3985L51.5031 31.971C53.6761 30.6044 53.7713 27.5302 51.7621 26.0205Z" fill="url(#paint2_linear_16579_23229)" fill-opacity="0.2"/>
<path d="M45.8304 57.6386L33.3589 53.8922L59.8748 37.2481C62.1079 35.8465 62.1021 32.6181 59.864 31.2242L59.7445 31.1499L60.0884 31.3617L68.1584 36.5455C69.1509 37.1831 69.75 38.2748 69.75 39.4464V42.56L45.8304 57.6386Z" fill="url(#paint3_linear_16579_23229)"/>
<path d="M45.8304 57.6386L33.3589 53.8922L59.8748 37.2481C62.1079 35.8465 62.1021 32.6181 59.864 31.2242L59.7445 31.1499L60.0884 31.3617L68.1584 36.5455C69.1509 37.1831 69.75 38.2748 69.75 39.4464V42.56L45.8304 57.6386Z" fill="url(#paint4_linear_16579_23229)" fill-opacity="0.2"/>
<path d="M52.0106 26.1732C49.5493 24.5921 46.3791 24.5924 43.9179 26.1738L27.764 36.5535C26.7717 37.1911 26.1729 38.2828 26.1729 39.4541V39.6115C26.2118 40.7872 26.8367 41.8709 27.8459 42.5011L47.9319 55.0405L68.0684 42.5201C69.1141 41.8698 69.7488 40.733 69.7488 39.5102V42.5604L69.7493 39.4465C69.7493 38.275 69.1502 37.1832 68.1577 36.5456L52.0106 26.1732Z" fill="url(#paint5_radial_16579_23229)"/>
<path d="M44.3912 68.1125H62.182C66.3605 68.1125 69.7478 64.7583 69.7478 60.6205V39.51C69.7478 40.7328 69.113 41.8697 68.0674 42.52L41.6048 58.9738C40.1773 59.8614 39.3109 61.4134 39.311 63.0825C39.3113 65.8605 41.5856 68.1125 44.3912 68.1125Z" fill="url(#paint6_linear_16579_23229)"/>
<path d="M44.3912 68.1125H62.182C66.3605 68.1125 69.7478 64.7583 69.7478 60.6205V39.51C69.7478 40.7328 69.113 41.8697 68.0674 42.52L41.6048 58.9738C40.1773 59.8614 39.3109 61.4134 39.311 63.0825C39.3113 65.8605 41.5856 68.1125 44.3912 68.1125Z" fill="url(#paint7_radial_16579_23229)" fill-opacity="0.4"/>
<path d="M44.3912 68.1125H62.182C66.3605 68.1125 69.7478 64.7583 69.7478 60.6205V39.51C69.7478 40.7328 69.113 41.8697 68.0674 42.52L41.6048 58.9738C40.1773 59.8614 39.3109 61.4134 39.311 63.0825C39.3113 65.8605 41.5856 68.1125 44.3912 68.1125Z" fill="url(#paint8_radial_16579_23229)" fill-opacity="0.5"/>
<path d="M51.625 68.1112H33.7362C29.5577 68.1112 26.1704 64.7569 26.1704 60.6192V39.4946C26.1704 40.715 26.8028 41.8502 27.8454 42.501L54.2817 59.0051C55.729 59.9086 56.6069 61.4844 56.6067 63.1786C56.6064 65.9029 54.3761 68.1112 51.625 68.1112Z" fill="url(#paint9_radial_16579_23229)"/>
<path d="M51.625 68.1112H33.7362C29.5577 68.1112 26.1704 64.7569 26.1704 60.6192V39.4946C26.1704 40.715 26.8028 41.8502 27.8454 42.501L54.2817 59.0051C55.729 59.9086 56.6069 61.4844 56.6067 63.1786C56.6064 65.9029 54.3761 68.1112 51.625 68.1112Z" fill="url(#paint10_linear_16579_23229)"/>
<path d="M39.1843 45.3328H27.6842C25.5114 45.3328 23.75 47.077 23.75 49.2286V60.6164C23.75 62.768 25.5114 64.5123 27.6842 64.5123H39.1843C41.3571 64.5123 43.1185 62.768 43.1185 60.6164V49.2286C43.1185 47.077 41.3571 45.3328 39.1843 45.3328Z" fill="url(#paint11_radial_16579_23229)"/>
<path d="M39.1843 45.3328H27.6842C25.5114 45.3328 23.75 47.077 23.75 49.2286V60.6164C23.75 62.768 25.5114 64.5123 27.6842 64.5123H39.1843C41.3571 64.5123 43.1185 62.768 43.1185 60.6164V49.2286C43.1185 47.077 41.3571 45.3328 39.1843 45.3328Z" fill="url(#paint12_radial_16579_23229)" fill-opacity="0.5"/>
<path d="M33.3848 60.4364C31.7833 60.4364 30.4685 59.9403 29.4405 58.9481C28.4125 57.9559 27.8984 56.6612 27.8984 55.0638C27.8984 53.3769 28.4202 52.0127 29.4638 50.9709C30.5073 49.9292 31.8737 49.4082 33.563 49.4082C35.1593 49.4082 36.4586 49.9068 37.4608 50.904C38.4682 51.9011 38.9719 53.2157 38.9719 54.8479C38.9719 56.5248 38.45 57.8766 37.4065 58.9035C36.3681 59.9254 35.0276 60.4364 33.3848 60.4364ZM33.4313 58.3305C34.3043 58.3305 35.0069 58.0353 35.5391 57.445C36.0711 56.8546 36.3372 56.0335 36.3372 54.9819C36.3372 53.8854 36.0788 53.0322 35.5623 52.422C35.0456 51.8118 34.356 51.5067 33.4933 51.5067C32.6047 51.5067 31.8892 51.8217 31.3467 52.4518C30.8043 53.0769 30.5331 53.9053 30.5331 54.9372C30.5331 55.984 30.8043 56.8125 31.3467 57.4226C31.8892 58.0278 32.584 58.3305 33.4313 58.3305Z" fill="white"/>
<path d="M33.3805 60.5842C31.7851 60.5842 30.4753 60.0746 29.4512 59.0555C28.4271 58.0362 27.915 56.7061 27.915 55.0652C27.915 53.3325 28.4348 51.931 29.4744 50.8609C30.5139 49.7907 31.8752 49.2556 33.5579 49.2556C35.1482 49.2556 36.4425 49.7678 37.441 50.7921C38.4445 51.8164 38.9463 53.1669 38.9463 54.8436C38.9463 56.566 38.4265 57.9547 37.3869 59.0096C36.3525 60.0594 35.017 60.5842 33.3805 60.5842ZM33.4267 58.421C34.2965 58.421 34.9964 58.1177 35.5265 57.5113C36.0566 56.9049 36.3216 56.0615 36.3216 54.9811C36.3216 53.8549 36.0642 52.9784 35.5496 52.3515C35.035 51.7247 34.3479 51.4113 33.4886 51.4113C32.6033 51.4113 31.8906 51.7349 31.3502 52.3821C30.8099 53.0241 30.5397 53.8752 30.5397 54.9353C30.5397 56.0105 30.8099 56.8616 31.3502 57.4884C31.8906 58.1101 32.5827 58.421 33.4267 58.421Z" fill="white"/>
</g>
</g>
<defs>
<linearGradient id="paint0_linear_16579_23229" x1="30.9998" y1="44.5714" x2="56.2133" y2="28.7786" gradientUnits="userSpaceOnUse">
<stop stop-color="#20A7FA"/>
<stop offset="0.4" stop-color="#3BD5FF"/>
<stop offset="1" stop-color="#C4B0FF"/>
</linearGradient>
<linearGradient id="paint1_linear_16579_23229" x1="39.7258" y1="49.8813" x2="53.6411" y2="27.3801" gradientUnits="userSpaceOnUse">
<stop stop-color="#165AD9"/>
<stop offset="0.5008" stop-color="#1880E5"/>
<stop offset="1" stop-color="#8587FF"/>
</linearGradient>
<linearGradient id="paint2_linear_16579_23229" x1="50.0193" y1="50.1856" x2="34.4728" y2="37.3933" gradientUnits="userSpaceOnUse">
<stop offset="0.236946" stop-color="#448AFF" stop-opacity="0"/>
<stop offset="0.792113" stop-color="#0032B1"/>
</linearGradient>
<linearGradient id="paint3_linear_16579_23229" x1="48.0253" y1="55.0542" x2="72.647" y2="39.141" gradientUnits="userSpaceOnUse">
<stop stop-color="#1A43A6"/>
<stop offset="0.492267" stop-color="#2052CB"/>
<stop offset="1" stop-color="#5F20CB"/>
</linearGradient>
<linearGradient id="paint4_linear_16579_23229" x1="55.0158" y1="54.116" x2="40.0947" y2="41.0772" gradientUnits="userSpaceOnUse">
<stop stop-color="#0045B9" stop-opacity="0"/>
<stop offset="0.669859" stop-color="#0D1F69"/>
</linearGradient>
<radialGradient id="paint5_radial_16579_23229" cx="0" cy="0" r="1" gradientUnits="userSpaceOnUse" gradientTransform="translate(47.9626 25.9349) rotate(-90) scale(32.3686 35.3793)">
<stop offset="0.568182" stop-color="#275FF0" stop-opacity="0"/>
<stop offset="0.992424" stop-color="#002177"/>
</radialGradient>
<linearGradient id="paint6_linear_16579_23229" x1="69.7478" y1="53.6555" x2="47.7811" y2="53.6555" gradientUnits="userSpaceOnUse">
<stop stop-color="#4DC4FF"/>
<stop offset="0.196145" stop-color="#0FAFFF"/>
</linearGradient>
<radialGradient id="paint7_radial_16579_23229" cx="0" cy="0" r="1" gradientTransform="matrix(9.90535 -9.80868 9.90535 9.80868 52.9151 63.2076)" gradientUnits="userSpaceOnUse">
<stop offset="0.259477" stop-color="#0060D1"/>
<stop offset="0.908166" stop-color="#0383F1" stop-opacity="0"/>
</radialGradient>
<radialGradient id="paint8_radial_16579_23229" cx="0" cy="0" r="1" gradientTransform="matrix(28.8435 -37.4357 34.185 25.8274 31.7775 73.469)" gradientUnits="userSpaceOnUse">
<stop offset="0.732317" stop-color="#F4A7F7" stop-opacity="0"/>
<stop offset="1" stop-color="#F4A7F7"/>
</radialGradient>
<radialGradient id="paint9_radial_16579_23229" cx="0" cy="0" r="1" gradientTransform="matrix(-13.7888 20.7558 -54.3947 -35.4345 41.3887 50.7652)" gradientUnits="userSpaceOnUse">
<stop stop-color="#49DEFF"/>
<stop offset="0.724349" stop-color="#29C3FF"/>
</radialGradient>
<linearGradient id="paint10_linear_16579_23229" x1="23.0936" y1="63.1605" x2="44.2435" y2="63.145" gradientUnits="userSpaceOnUse">
<stop offset="0.205882" stop-color="#6CE0FF"/>
<stop offset="0.535" stop-color="#50D5FF" stop-opacity="0"/>
</linearGradient>
<radialGradient id="paint11_radial_16579_23229" cx="0" cy="0" r="1" gradientTransform="matrix(17.4129 18.4418 -18.6236 17.2429 23.6809 46.0705)" gradientUnits="userSpaceOnUse">
<stop offset="0.038877" stop-color="#0091FF"/>
<stop offset="0.919119" stop-color="#183DAD"/>
</radialGradient>
<radialGradient id="paint12_radial_16579_23229" cx="0" cy="0" r="1" gradientUnits="userSpaceOnUse" gradientTransform="translate(33.4343 57.013) rotate(90) scale(13.4256 15.6386)">
<stop offset="0.557796" stop-color="#0FA5F7" stop-opacity="0"/>
<stop offset="1" stop-color="#74C6FF"/>
</radialGradient>
<clipPath id="clip0_16579_23229">
<rect width="46" height="46" fill="white" transform="translate(23.75 23.55)"/>
</clipPath>
<clipPath id="clip1_16579_23229">
<rect width="46" height="43.125" fill="white" transform="translate(23.75 24.9875)"/>
</clipPath>
</defs>
</svg>