<svg xmlns="http://www.w3.org/2000/svg" width="113" height="24" fill="none" xmlns:v="https://vecta.io/nano"><g clip-path="url(#A)"><path d="M78.865 19.989h4.8l-3.419-5.918c1.907-.789 2.959-2.367 2.959-4.34 0-3.025-1.973-4.997-5.918-4.997h-7.562v15.255h4.142v-5.326h2.104l2.893 5.326zm.132-10.257c0 1.052-.723 1.841-2.301 1.841h-2.893V7.89h2.893c1.578 0 2.301.789 2.301 1.841zm-16.701-.723v4.866c0 2.236-1.052 2.959-2.499 2.959-1.381 0-2.499-.789-2.499-2.959V8.942h-4.208v5.129c0 4.011 2.236 6.247 6.773 6.247s6.707-2.236 6.707-6.181V9.008h-4.274zm-4.997-1.381V4.734h-4.208v2.893h4.208zm4.997 0h4.208V4.734h-4.208v2.893zM35.599 14.86l-2.17-10.126h-4.208l3.88 15.255h4.471l2.63-9.994 2.63 9.994h4.471l3.88-15.255h-4.208l-2.17 10.126-2.63-10.126h-3.945l-2.63 10.126zm72.921-4.668h-5.129V4.734h-4.208v15.255h4.208v-6.378h5.129v6.378h4.274V4.734h-4.274v5.458zM88.662 8.088v11.967h4.208V8.088h3.945V4.734H84.717v3.353h3.945z" fill="#000"/><path d="M22.843 9.403H.947V0h9.14v3.682h3.682V0h9.14v9.403h-.066zm-9.14 10.915V24c5.26-.986 9.14-5.523 9.14-10.652v-.197H.947v.197c0 5.063 3.879 9.6 9.14 10.586v-3.682h3.617v.066z" fill="#c00"/></g><defs><clipPath id="A"><path fill="#fff" transform="translate(.947)" d="M0 0h111.847v24H0z"/></clipPath></defs></svg>